<svg width="16" height="16" viewBox="0 0 16 16" fill="none" xmlns="http://www.w3.org/2000/svg">
<path fill-rule="evenodd" clip-rule="evenodd" d="M3.55165 2.48999C3.55165 3.37934 2.87448 4.09907 1.81551 4.09907C0.797795 4.09907 0.12063 3.37934 0.141586 2.48999C0.12063 1.55742 0.797779 0.858643 1.83579 0.858643C2.87447 0.858643 3.53135 1.55742 3.55165 2.48999ZM0.226726 15.7294V5.37022H3.4462V15.7287H0.226726V15.7294Z" fill="white"/>
<path fill-rule="evenodd" clip-rule="evenodd" d="M6.02703 8.67626C6.02703 7.38415 5.98446 6.28261 5.94189 5.37165H8.73831L8.88696 6.79081H8.9505C9.37422 6.13395 10.4332 5.13916 12.149 5.13916C14.267 5.13916 15.8558 6.53737 15.8558 9.58657V15.7308H12.6363V9.98998C12.6363 8.65465 12.1706 7.74434 11.0056 7.74434C10.1156 7.74434 9.58641 8.35863 9.37488 8.95132C9.28974 9.1635 9.24783 9.45951 9.24783 9.75684V15.7308H6.02833V8.67626H6.02703Z" fill="white"/>
</svg>
