<svg width="17" height="17" viewBox="0 0 17 17" fill="none" xmlns="http://www.w3.org/2000/svg">
<path d="M8.41667 2.09747C10.5151 2.09747 10.8012 2.09747 11.6596 2.09747C12.4227 2.09747 12.8042 2.28823 13.0904 2.38362C13.4719 2.57438 13.758 2.66976 14.0442 2.95591C14.3303 3.24205 14.5211 3.52819 14.6165 3.90972C14.7118 4.19587 14.8072 4.57739 14.9026 5.34044C14.9026 6.19888 14.9026 6.38964 14.9026 8.58342C14.9026 10.7772 14.9026 10.968 14.9026 11.8264C14.9026 12.5894 14.7118 12.971 14.6165 13.2571C14.4257 13.6386 14.3303 13.9248 14.0442 14.2109C13.758 14.4971 13.4719 14.6878 13.0904 14.7832C12.8042 14.8786 12.4227 14.974 11.6596 15.0694C10.8012 15.0694 10.6104 15.0694 8.41667 15.0694C6.22289 15.0694 6.03213 15.0694 5.1737 15.0694C4.41064 15.0694 4.02912 14.8786 3.74297 14.7832C3.36145 14.5925 3.0753 14.4971 2.78916 14.2109C2.50301 13.9248 2.31225 13.6386 2.21687 13.2571C2.12149 12.971 2.0261 12.5894 1.93072 11.8264C1.93072 10.968 1.93072 10.7772 1.93072 8.58342C1.93072 6.38964 1.93072 6.19888 1.93072 5.34044C1.93072 4.57739 2.12149 4.19587 2.21687 3.90972C2.40763 3.52819 2.50301 3.24205 2.78916 2.95591C3.0753 2.66976 3.36145 2.479 3.74297 2.38362C4.02912 2.28823 4.41064 2.19285 5.1737 2.09747C6.03213 2.09747 6.31827 2.09747 8.41667 2.09747ZM8.41667 0.666748C6.22289 0.666748 6.03213 0.666748 5.1737 0.666748C4.31526 0.666748 3.74297 0.857512 3.26607 1.04827C2.78916 1.23904 2.31225 1.52518 1.83534 2.00209C1.35843 2.479 1.16767 2.86052 0.881527 3.43281C0.690764 3.90972 0.595382 4.48201 0.5 5.34044C0.5 6.19888 0.5 6.48502 0.5 8.58342C0.5 10.7772 0.5 10.968 0.5 11.8264C0.5 12.6848 0.690764 13.2571 0.881527 13.734C1.07229 14.2109 1.35843 14.6878 1.83534 15.1647C2.31225 15.6416 2.69378 15.8324 3.26607 16.1186C3.74297 16.3093 4.31526 16.4047 5.1737 16.5001C6.03213 16.5001 6.31827 16.5001 8.41667 16.5001C10.5151 16.5001 10.8012 16.5001 11.6596 16.5001C12.5181 16.5001 13.0904 16.3093 13.5673 16.1186C14.0442 15.9278 14.5211 15.6416 14.998 15.1647C15.4749 14.6878 15.6657 14.3063 15.9518 13.734C16.1426 13.2571 16.238 12.6848 16.3333 11.8264C16.3333 10.968 16.3333 10.6818 16.3333 8.58342C16.3333 6.48502 16.3333 6.19888 16.3333 5.34044C16.3333 4.48201 16.1426 3.90972 15.9518 3.43281C15.761 2.95591 15.4749 2.479 14.998 2.00209C14.5211 1.52518 14.1396 1.33442 13.5673 1.04827C13.0904 0.857512 12.5181 0.76213 11.6596 0.666748C10.8012 0.666748 10.6104 0.666748 8.41667 0.666748Z" fill="white"/>
<path d="M8.41667 4.48201C6.12751 4.48201 4.31526 6.29426 4.31526 8.58342C4.31526 10.8726 6.12751 12.6848 8.41667 12.6848C10.7058 12.6848 12.5181 10.8726 12.5181 8.58342C12.5181 6.29426 10.7058 4.48201 8.41667 4.48201ZM8.41667 11.2541C6.98594 11.2541 5.74598 10.1095 5.74598 8.58342C5.74598 7.15269 6.89056 5.91273 8.41667 5.91273C9.84739 5.91273 11.0873 7.05731 11.0873 8.58342C11.0873 10.0141 9.84739 11.2541 8.41667 11.2541Z" fill="white"/>
<path d="M12.6135 5.34044C13.1402 5.34044 13.5673 4.91341 13.5673 4.38663C13.5673 3.85985 13.1402 3.43281 12.6135 3.43281C12.0867 3.43281 11.6596 3.85985 11.6596 4.38663C11.6596 4.91341 12.0867 5.34044 12.6135 5.34044Z" fill="white"/>
</svg>
