<svg width="94" height="54" viewBox="0 0 94 54" fill="none" xmlns="http://www.w3.org/2000/svg">
<path d="M31.307 49.0653C31.5944 49.0653 31.8489 49.1337 32.0703 49.2703C32.2965 49.407 32.4709 49.6026 32.5934 49.8571C32.7159 50.1068 32.7772 50.399 32.7772 50.7337C32.7772 51.1107 32.7088 51.4453 32.5722 51.7375C32.4355 52.025 32.2423 52.2488 31.9926 52.4091C31.7475 52.5693 31.4648 52.6494 31.1444 52.6494C30.8805 52.6494 30.6519 52.5952 30.4587 52.4868C30.2655 52.3784 30.1171 52.2206 30.0134 52.0132L29.9639 52.5999H29.25L29.6458 47.6162H30.3598L30.1972 49.6239C30.315 49.4495 30.4705 49.3128 30.6637 49.2139C30.8616 49.1149 31.076 49.0653 31.307 49.0653ZM31.0454 52.0838C31.3612 52.0838 31.6062 51.966 31.7805 51.7303C31.9596 51.4947 32.0491 51.1695 32.0491 50.7548C32.0491 50.3966 31.9667 50.1209 31.8017 49.9277C31.6368 49.7344 31.4012 49.6378 31.0949 49.6378C30.7839 49.6378 30.5388 49.758 30.3598 49.9984C30.1807 50.234 30.0912 50.5568 30.0912 50.9669C30.0912 51.3298 30.1736 51.6078 30.3386 51.801C30.5035 51.9895 30.7391 52.0838 31.0454 52.0838Z" fill="white"/>
<path d="M36.8039 49.1548L34.3794 53.8701H33.6584L34.3582 52.5058L33.1777 49.155H33.9058L34.7823 51.7848L36.0758 49.155L36.8039 49.1548Z" fill="white"/>
<path d="M38.4072 52.0536L38.8455 52.0253C39.0905 52.0065 39.2767 51.9311 39.4039 51.7991C39.5311 51.6672 39.6042 51.4692 39.623 51.2053L39.9057 47.6143H40.6409L40.3581 51.2053C40.3251 51.6578 40.1861 51.9994 39.9411 52.2304C39.7008 52.4613 39.3544 52.5909 38.902 52.6192L38.4355 52.6545L38.4072 52.0536Z" fill="white"/>
<path d="M44.6234 49.1489L44.3548 52.5988H43.655L43.6974 52.0757C43.5796 52.2595 43.4217 52.4008 43.2238 52.4998C43.0306 52.5988 42.8138 52.6483 42.5735 52.6483C42.1918 52.6483 41.902 52.5469 41.7041 52.3443C41.5062 52.1369 41.4072 51.8353 41.4072 51.4394C41.4072 51.3546 41.4096 51.291 41.4143 51.2486L41.5839 49.149H42.2979L42.1282 51.2062L42.1211 51.3334C42.1211 51.8235 42.3497 52.0686 42.8068 52.0686C43.0848 52.0686 43.3063 51.9814 43.4712 51.807C43.6362 51.6327 43.7304 51.3923 43.754 51.086L43.9095 49.149L44.6234 49.1489Z" fill="white"/>
<path d="M46.6121 52.6476C46.0561 52.6476 45.5731 52.5015 45.1631 52.2093L45.4175 51.6933C45.7851 51.9666 46.188 52.1033 46.6263 52.1033C46.8713 52.1033 47.0551 52.0656 47.1776 51.9902C47.3048 51.9147 47.3684 51.8064 47.3684 51.665C47.3684 51.5283 47.3048 51.4246 47.1776 51.3539C47.0503 51.2785 46.8524 51.2031 46.5838 51.1277C46.3388 51.057 46.1409 50.9887 45.9901 50.9227C45.8393 50.8567 45.7097 50.7601 45.6013 50.6329C45.4929 50.5009 45.4388 50.3312 45.4388 50.1239C45.4388 49.8034 45.566 49.5465 45.8205 49.3533C46.0796 49.1601 46.4213 49.0635 46.8454 49.0635C47.0951 49.0635 47.3354 49.1035 47.5664 49.1837C47.7973 49.2638 47.9881 49.3722 48.1389 49.5088L47.8844 50.0108C47.5546 49.7421 47.2082 49.6078 46.8454 49.6078C46.6098 49.6078 46.4283 49.6479 46.3011 49.728C46.1739 49.8081 46.1102 49.9259 46.1102 50.0814C46.1102 50.2181 46.1715 50.3218 46.294 50.3925C46.4213 50.4632 46.6192 50.5362 46.8878 50.6116C47.1328 50.6823 47.3307 50.7507 47.4815 50.8166C47.6323 50.8826 47.7619 50.9816 47.8703 51.1135C47.9787 51.2408 48.0328 51.4105 48.0328 51.6226C48.0328 51.943 47.9033 52.1952 47.6441 52.379C47.3896 52.5581 47.0457 52.6476 46.6121 52.6476Z" fill="white"/>
<path d="M49.7487 51.3193L49.7416 51.4395C49.7416 51.8778 49.9584 52.0969 50.3919 52.0969C50.4909 52.0969 50.5969 52.0899 50.71 52.0757L50.6322 52.613C50.5191 52.6366 50.4013 52.6483 50.2788 52.6483C49.8735 52.6483 49.5625 52.5517 49.3458 52.3585C49.1337 52.1606 49.0277 51.8778 49.0277 51.5102C49.0277 51.4348 49.03 51.3782 49.0348 51.3405L49.162 49.7004H48.4976L48.54 49.1491H49.2044L49.2892 48.1099H50.0031L49.9183 49.1491H50.8655L50.8231 49.7004H49.8759L49.7487 51.3193Z" fill="white"/>
<path d="M54.6847 51.3699H52.1684L51.5464 52.5999H50.79L53.3983 47.6162H54.0062L55.8369 52.5999H55.1159L54.6847 51.3699ZM54.4798 50.7902L53.6527 48.4291L52.4582 50.7902H54.4798Z" fill="white"/>
<path d="M59.9745 47.6144L59.5857 52.5981H58.8789L58.9213 52.082C58.8082 52.2611 58.6527 52.4001 58.4548 52.4991C58.2615 52.5981 58.0471 52.6476 57.8115 52.6476C57.5241 52.6476 57.2673 52.5816 57.0411 52.4496C56.8196 52.3129 56.6476 52.1197 56.5251 51.8699C56.4026 51.6202 56.3413 51.328 56.3413 50.9933C56.3413 50.6116 56.4096 50.2746 56.5463 49.9825C56.6829 49.6902 56.8738 49.464 57.1188 49.3038C57.3686 49.1436 57.6537 49.0634 57.9741 49.0634C58.2333 49.0634 58.4595 49.1176 58.6527 49.226C58.8459 49.3344 58.9943 49.49 59.098 49.6926L59.2606 47.6143L59.9745 47.6144ZM58.0165 52.0822C58.3322 52.0822 58.5796 51.9644 58.7587 51.7287C58.9378 51.4884 59.0273 51.1632 59.0273 50.7532C59.0273 50.3903 58.9448 50.1146 58.7799 49.9261C58.615 49.7328 58.3793 49.6362 58.073 49.6362C57.7573 49.6362 57.5099 49.7541 57.3309 49.9897C57.1518 50.2253 57.0623 50.5482 57.0623 50.9582C57.0623 51.3164 57.1447 51.5944 57.3097 51.7924C57.4793 51.9856 57.7149 52.0822 58.0165 52.0822Z" fill="white"/>
<path d="M64.1561 47.6144L63.7673 52.5981H63.0605L63.1029 52.082C62.9898 52.2611 62.8343 52.4001 62.6364 52.4991C62.4432 52.5981 62.2288 52.6476 61.9932 52.6476C61.7057 52.6476 61.4489 52.5816 61.2227 52.4496C61.0012 52.3129 60.8292 52.1197 60.7067 51.8699C60.5842 51.6202 60.5229 51.328 60.5229 50.9933C60.5229 50.6116 60.5913 50.2746 60.7279 49.9825C60.8646 49.6902 61.0554 49.464 61.3005 49.3038C61.5502 49.1436 61.8353 49.0634 62.1558 49.0634C62.4149 49.0634 62.6411 49.1176 62.8343 49.226C63.0275 49.3344 63.176 49.49 63.2796 49.6926L63.4422 47.6143L64.1561 47.6144ZM62.1981 52.0822C62.5139 52.0822 62.7613 51.9644 62.9403 51.7287C63.1194 51.4884 63.2089 51.1632 63.2089 50.7532C63.2089 50.3903 63.1265 50.1146 62.9615 49.9261C62.7966 49.7328 62.561 49.6362 62.2547 49.6362C61.939 49.6362 61.6916 49.7541 61.5125 49.9897C61.3334 50.2253 61.2439 50.5482 61.2439 50.9582C61.2439 51.3164 61.3264 51.5944 61.4913 51.7924C61.6609 51.9856 61.8966 52.0822 62.1981 52.0822Z" fill="white"/>
<path d="M5.3754 44.3904C7.4111 44.3904 9.31946 43.6269 10.7511 42.1954C12.1824 40.7638 12.9776 38.8551 12.9776 36.8191V19.4182L7.98375 21.0088V36.8191C7.98375 38.2506 6.80685 39.3959 5.3755 39.3959C4.67573 39.3959 4.03957 39.1414 3.53063 38.6642L0 42.1952C1.43136 43.6268 3.33965 44.3904 5.3754 44.3904Z" fill="white"/>
<path d="M16.3887 44.2652H24.5314C26.2172 44.2652 27.8713 43.9471 29.3981 43.3109C30.8931 42.6747 32.229 41.7839 33.3741 40.6387C34.551 39.5253 35.4416 38.1892 36.0778 36.6942C36.7458 35.1672 37.0638 33.513 37.0638 31.8269C37.0638 30.1409 36.7458 28.4866 36.0778 26.9597C35.4416 25.4645 34.5192 24.1602 33.3741 23.0151C32.229 21.8699 30.8931 20.9792 29.3981 20.3748C27.8395 19.7385 26.2173 19.4204 24.5314 19.4204H16.3887V44.2652ZM24.5314 39.2708H21.3822V24.4128H24.5311C26.5668 24.4128 28.4752 25.1763 29.8748 26.576C31.3062 27.9757 32.0695 29.8208 32.0695 31.8248C32.0695 33.829 31.3062 35.7057 29.8748 37.1056C28.4435 38.5053 26.5669 39.2688 24.5311 39.2688L24.5314 39.2708Z" fill="white"/>
<path d="M39.1164 36.4074V44.2331H43.8876V36.4074C43.8876 33.3218 46.4005 30.8403 49.454 30.8403V26.0686C48.0545 26.0686 46.7185 26.3231 45.4461 26.8639C44.2056 27.4047 43.0923 28.1364 42.1698 29.0907C41.2155 30.0451 40.4522 31.1585 39.9432 32.3674C39.4025 33.6399 39.1164 35.0077 39.1164 36.4074Z" fill="white"/>
<path d="M50.5532 27.4661V44.2308H55.3564V25.8755L50.5532 27.4661Z" fill="white"/>
<path d="M71.8031 29.153C70.3082 27.626 68.2725 26.7989 66.1412 26.7989C65.0279 26.7989 63.9147 27.0216 62.9285 27.467V26.3218H58.1573V34.1156C58.1255 34.3383 58.1255 34.5927 58.1255 34.8154H58.1573V44.2317H62.9285V34.37C63.1511 32.7794 64.5189 31.5706 66.1412 31.5706C67.9225 31.5706 69.3856 33.0339 69.3856 34.8153V44.2317H74.1568V34.8153C74.1568 32.684 73.3299 30.68 71.8031 29.153Z" fill="white"/>
<path d="M83.164 37.6462L87.3944 44.2312H92.9927L86.5039 34.1468L93.4064 26.5121H87.2633L81.2516 33.2243V18.5908H76.4487V44.2309H81.2519V39.7135L83.164 37.6462Z" fill="white"/>
<path d="M46.5654 0.00441859L46.536 0L46.0982 0.398366C45.8573 0.617534 45.6613 0.797925 45.6625 0.799328C45.6636 0.800821 45.7136 0.796636 45.7735 0.790217C45.8334 0.783889 45.9419 0.774938 46.0146 0.770311C46.0929 0.765326 46.2171 0.763712 46.3194 0.766339C46.4214 0.769026 46.5354 0.776608 46.5984 0.784997C46.657 0.792789 46.7442 0.807981 46.7921 0.818779C46.8402 0.829586 46.9129 0.849993 46.9537 0.864167C46.9946 0.878407 47.0607 0.906774 47.1006 0.927194C47.1405 0.947673 47.1983 0.983084 47.2291 1.006C47.2599 1.02893 47.3034 1.06747 47.3258 1.09178C47.3481 1.11602 47.3789 1.15466 47.3941 1.17758C47.4093 1.20051 47.4302 1.23824 47.4405 1.26145C47.4507 1.28464 47.4655 1.32807 47.4731 1.35804C47.4809 1.38866 47.487 1.43751 47.487 1.46968C47.487 1.51081 47.4817 1.54394 47.4679 1.58786C47.4574 1.62135 47.4361 1.67548 47.4206 1.70802C47.4051 1.74056 47.3697 1.80173 47.3418 1.84389C47.314 1.88605 47.2701 1.94702 47.2443 1.97934C47.2185 2.01166 47.151 2.08562 47.0943 2.14379C47.0377 2.20189 46.9465 2.28811 46.8916 2.33534C46.8369 2.38257 46.701 2.48914 46.5897 2.5722C46.4784 2.65528 46.3348 2.76552 46.2707 2.81716C46.2066 2.86879 46.1095 2.94922 46.0549 2.99585C46.0005 3.04257 45.8979 3.13408 45.8271 3.19923C45.7564 3.26446 45.651 3.36699 45.5929 3.42707C45.5349 3.48722 45.4539 3.57441 45.4131 3.6209C45.3722 3.66732 45.312 3.73842 45.2794 3.77882C45.2468 3.81921 45.1915 3.89193 45.1566 3.9404C45.1218 3.98888 45.0677 4.07136 45.0364 4.12373C45.0051 4.17603 44.9623 4.26108 44.9412 4.31264C44.9202 4.3642 44.8861 4.4577 44.8655 4.52042C44.845 4.58315 44.8184 4.67524 44.8065 4.72512C44.7946 4.77499 44.7782 4.85615 44.7702 4.90544C44.7621 4.95472 44.7518 5.04536 44.7473 5.10676C44.7427 5.16817 44.7411 5.25307 44.7437 5.29551C44.7464 5.33789 44.7534 5.41046 44.7595 5.45673C44.7656 5.503 44.7818 5.58417 44.7953 5.63712C44.8089 5.69008 44.8323 5.76463 44.8473 5.80275C44.8623 5.84087 44.8893 5.90161 44.9074 5.93768C44.9254 5.97374 44.9563 6.02934 44.9761 6.06129C44.9959 6.09324 45.036 6.15126 45.0653 6.19034C45.0946 6.22941 45.1681 6.31123 45.2287 6.37212C45.2893 6.43308 45.3703 6.5077 45.4087 6.53803C45.4471 6.56837 45.5099 6.61487 45.5482 6.64131C45.5866 6.66782 45.6478 6.70763 45.6843 6.72981C45.7207 6.75193 45.7878 6.79012 45.8333 6.8145C45.8788 6.83895 45.962 6.8806 46.0184 6.90704C46.0747 6.9334 46.1746 6.97623 46.2402 7.00216C46.306 7.02801 46.4095 7.06591 46.4703 7.08626C46.5312 7.10662 46.627 7.1365 46.6833 7.15273C46.7396 7.16897 46.8385 7.19548 46.9032 7.21164C46.9678 7.22788 47.0868 7.2543 47.1676 7.27039C47.2483 7.28654 47.369 7.30814 47.4356 7.31842C47.5023 7.32863 47.5981 7.34177 47.6486 7.34759C47.6991 7.35338 47.7414 7.35714 47.7427 7.35583C47.7439 7.35463 47.6302 7.15833 47.4896 6.91976L47.2342 6.48606L47.1458 6.45579C47.0972 6.43913 47.0111 6.40724 46.9546 6.38491C46.898 6.36258 46.7857 6.31176 46.7049 6.27202C46.6241 6.23221 46.5225 6.1772 46.4791 6.14973C46.4357 6.12227 46.3666 6.07497 46.3254 6.04471C46.2843 6.01437 46.214 5.95318 46.1693 5.9086C46.1246 5.86401 46.0666 5.79711 46.0403 5.75995C46.0141 5.72271 45.9783 5.66498 45.9611 5.63164C45.9438 5.59829 45.9198 5.54034 45.9078 5.50281C45.8958 5.46535 45.8807 5.40425 45.8741 5.36693C45.8652 5.31574 45.8633 5.27328 45.8664 5.19271C45.8688 5.12955 45.8767 5.05779 45.8855 5.01644C45.8937 4.97803 45.9116 4.91361 45.9253 4.87322C45.9392 4.83282 45.9628 4.77171 45.9781 4.73733C45.9933 4.70296 46.024 4.64186 46.0463 4.60146C46.0685 4.56106 46.1049 4.49995 46.127 4.46558C46.149 4.4312 46.1892 4.3734 46.2162 4.33704C46.2431 4.30069 46.2983 4.23113 46.3388 4.18258C46.3793 4.13395 46.4617 4.0434 46.522 3.98133C46.5822 3.9192 46.6794 3.82563 46.738 3.77326C46.7966 3.72097 46.8825 3.64752 46.9289 3.61021C46.9754 3.57283 47.0646 3.50651 47.1272 3.46288C47.1898 3.41918 47.2923 3.3447 47.3549 3.29725C47.4175 3.24988 47.505 3.18076 47.5495 3.14367C47.5939 3.10658 47.6785 3.03181 47.7375 2.97753C47.7966 2.92318 47.8847 2.83504 47.9334 2.78164C47.9821 2.72817 48.0403 2.66206 48.0627 2.63459C48.085 2.60719 48.1279 2.55101 48.158 2.50973C48.1879 2.46853 48.2316 2.40331 48.255 2.36497C48.2783 2.32655 48.3198 2.24891 48.347 2.19236C48.3743 2.1358 48.4082 2.05442 48.4225 2.01146C48.4367 1.96849 48.4553 1.90077 48.4637 1.86089C48.4722 1.82057 48.4809 1.74433 48.4834 1.68924C48.4861 1.62784 48.4846 1.56908 48.4791 1.535C48.4744 1.50467 48.4588 1.43695 48.4444 1.38443C48.43 1.33192 48.4035 1.25259 48.3853 1.20815C48.3673 1.16372 48.3357 1.09762 48.3154 1.06126C48.295 1.02491 48.2633 0.973639 48.2448 0.947419C48.2264 0.921118 48.1919 0.875733 48.1682 0.846429C48.1444 0.817113 48.0939 0.762109 48.056 0.724139C48.018 0.686166 47.9537 0.628356 47.9131 0.595745C47.8726 0.563058 47.8099 0.516569 47.7739 0.492331C47.7378 0.468091 47.6779 0.429823 47.6407 0.407203C47.6035 0.384664 47.5244 0.341835 47.465 0.312089C47.4056 0.282355 47.3127 0.239299 47.2585 0.216383C47.2045 0.193546 47.0925 0.152267 47.0097 0.12465C46.9269 0.0970356 46.7996 0.0596458 46.7269 0.0416532C46.6542 0.023592 46.5815 0.00684268 46.5654 0.00441859ZM42.5237 1.92996C42.5167 1.92996 42.372 2.05622 42.2023 2.21046C42.0325 2.36478 41.8944 2.49155 41.8953 2.49214C41.8962 2.49274 41.935 2.48891 41.9814 2.48354C42.0279 2.47817 42.137 2.47163 42.2238 2.46891C42.3264 2.46574 42.416 2.46712 42.48 2.47279C42.5341 2.47757 42.6112 2.48814 42.6514 2.49614C42.6916 2.50423 42.7514 2.51928 42.7844 2.52956C42.8174 2.53983 42.8774 2.56533 42.9178 2.58619C42.9756 2.61601 43.0038 2.6365 43.0508 2.68277C43.0983 2.7297 43.1164 2.75409 43.1407 2.80396C43.1606 2.84494 43.1737 2.88453 43.1789 2.91927C43.1854 2.96253 43.1847 2.98067 43.1753 3.01843C43.169 3.04392 43.1476 3.09782 43.1277 3.13822C43.1077 3.17869 43.0755 3.23363 43.056 3.26037C43.0365 3.28708 42.9941 3.33954 42.9618 3.37685C42.9295 3.41417 42.8651 3.47924 42.8186 3.52155C42.7722 3.56385 42.6616 3.65316 42.5729 3.72C42.4842 3.78684 42.3735 3.87218 42.3269 3.90956C42.2802 3.94695 42.2124 4.00299 42.176 4.03406C42.1397 4.0652 42.0603 4.1366 41.9995 4.19278C41.9389 4.24897 41.8545 4.33211 41.812 4.37758C41.7695 4.42304 41.7083 4.49156 41.6758 4.52998C41.6434 4.56832 41.5968 4.62635 41.5723 4.65881C41.5478 4.69135 41.509 4.74672 41.4861 4.7819C41.4631 4.81708 41.43 4.87643 41.4123 4.91375C41.3947 4.95113 41.3666 5.02134 41.3499 5.06982C41.3332 5.1183 41.3116 5.18844 41.302 5.22567C41.2922 5.26298 41.2792 5.32263 41.273 5.35825C41.2668 5.39387 41.2584 5.46461 41.2543 5.51536C41.2492 5.57816 41.2492 5.6356 41.2543 5.69502C41.2584 5.74298 41.2671 5.80864 41.2736 5.84081C41.2801 5.87306 41.2968 5.93255 41.3109 5.97302C41.3249 6.01356 41.354 6.08077 41.3757 6.12234C41.3974 6.16398 41.4342 6.22494 41.4577 6.25777C41.4812 6.29068 41.5316 6.35024 41.5698 6.3902C41.608 6.43016 41.6642 6.48363 41.6946 6.50897C41.7251 6.53437 41.7864 6.57993 41.8309 6.61019C41.8753 6.64052 41.948 6.68554 41.9924 6.71022C42.0369 6.73497 42.1162 6.77463 42.1687 6.79843C42.2212 6.82216 42.3138 6.85998 42.3746 6.88253C42.4353 6.90501 42.536 6.93821 42.5986 6.95635C42.661 6.97441 42.7617 7.00086 42.8223 7.0151C42.8829 7.02934 42.979 7.04941 43.0359 7.05969C43.0928 7.07005 43.1886 7.08479 43.2488 7.09252C43.3091 7.10022 43.3594 7.10559 43.3606 7.10449C43.3618 7.10329 43.2821 6.96568 43.1835 6.79858L43.0041 6.49474L42.9757 6.48444C42.96 6.47876 42.8992 6.45605 42.8407 6.43397C42.7822 6.41179 42.6857 6.3695 42.6262 6.33965C42.5668 6.30992 42.494 6.27017 42.4647 6.25142C42.4352 6.23252 42.3864 6.19804 42.356 6.17492C42.3257 6.15182 42.2771 6.10848 42.2479 6.07863C42.2187 6.04889 42.1818 6.0069 42.1658 5.98536C42.1497 5.96369 42.1234 5.92063 42.1071 5.88958C42.0912 5.85867 42.0708 5.80848 42.0621 5.77836C42.052 5.74349 42.0449 5.69262 42.0424 5.63899C42.04 5.59169 42.0421 5.53168 42.0465 5.50253C42.051 5.47396 42.0631 5.42108 42.0735 5.38502C42.0839 5.34903 42.1134 5.27653 42.139 5.22401C42.1646 5.17149 42.2077 5.09548 42.2348 5.05508C42.2619 5.01468 42.308 4.95188 42.3372 4.91552C42.3664 4.87917 42.4208 4.81637 42.4579 4.77598C42.4951 4.73558 42.5625 4.66823 42.6078 4.62629C42.6531 4.58428 42.7258 4.52075 42.7693 4.48505C42.8129 4.44936 42.8807 4.39794 42.9199 4.37076C42.9592 4.3436 43.0363 4.28733 43.0915 4.24568C43.1466 4.20404 43.2325 4.13412 43.2824 4.09027C43.3323 4.04642 43.4113 3.97128 43.4578 3.92325C43.5044 3.87515 43.5635 3.80999 43.5891 3.77842C43.6147 3.74676 43.6604 3.68397 43.6906 3.63887C43.7209 3.5937 43.7631 3.52039 43.7845 3.47596C43.8059 3.43152 43.8318 3.36828 43.842 3.33545C43.8523 3.30262 43.8662 3.24644 43.873 3.21059C43.8816 3.16454 43.8842 3.1218 43.8818 3.06465C43.88 3.02022 43.8727 2.96402 43.8658 2.93979C43.8588 2.91554 43.8446 2.86928 43.8342 2.83696C43.8238 2.80465 43.7996 2.74676 43.7804 2.70842C43.7612 2.66985 43.7279 2.61371 43.7065 2.58346C43.6853 2.55308 43.6378 2.49747 43.6013 2.45955C43.5647 2.42177 43.5101 2.37065 43.4797 2.34621C43.4495 2.32176 43.39 2.27896 43.3475 2.25122C43.3051 2.22349 43.2289 2.17963 43.1781 2.15387C43.1272 2.12784 43.0497 2.09204 43.0054 2.07408C42.9613 2.05611 42.8889 2.02916 42.8445 2.01437C42.8 1.99944 42.7127 1.97435 42.6502 1.95849C42.5878 1.94264 42.5307 1.92996 42.5237 1.92996ZM50.0345 1.93055C50.0253 1.93078 49.8996 2.04029 49.7127 2.21075C49.544 2.36456 49.4069 2.49112 49.408 2.49192C49.4091 2.49282 49.4496 2.48854 49.4981 2.4826C49.5544 2.47571 49.6618 2.47144 49.7955 2.47084C49.964 2.47024 50.0212 2.47233 50.0892 2.48302C50.1357 2.49031 50.2051 2.50446 50.2435 2.51453C50.2819 2.52468 50.3391 2.54406 50.3707 2.55772C50.4022 2.57139 50.4467 2.59357 50.4696 2.60701C50.4924 2.62044 50.5361 2.65622 50.5665 2.68655C50.5991 2.71894 50.6314 2.75977 50.6449 2.7857C50.6576 2.80994 50.6733 2.84769 50.6797 2.86965C50.6862 2.89162 50.6915 2.93223 50.6915 2.95985C50.6915 2.99121 50.6857 3.02712 50.6763 3.05511C50.668 3.07985 50.651 3.12018 50.6386 3.14486C50.6262 3.16946 50.6027 3.2095 50.5864 3.23374C50.5702 3.25798 50.5344 3.30484 50.5068 3.33781C50.4792 3.37086 50.4326 3.42227 50.4033 3.45217C50.374 3.48206 50.3202 3.5323 50.2839 3.56388C50.2475 3.59546 50.16 3.66436 50.0892 3.71695C50.0186 3.76961 49.9062 3.85628 49.8396 3.90953C49.773 3.96285 49.6705 4.04886 49.6119 4.10072C49.5534 4.15257 49.4508 4.24989 49.3842 4.31696C49.3176 4.38402 49.2267 4.48279 49.1823 4.53649C49.1378 4.59018 49.081 4.66274 49.0559 4.69778C49.0308 4.73282 48.9905 4.79451 48.9661 4.83492C48.9416 4.87583 48.9054 4.95178 48.8846 5.00643C48.8641 5.06034 48.8362 5.14517 48.8226 5.19489C48.8089 5.24469 48.7911 5.32614 48.7829 5.37602C48.7748 5.42581 48.766 5.50125 48.7633 5.54369C48.7606 5.58732 48.7621 5.65754 48.767 5.70528C48.7716 5.7517 48.7804 5.8145 48.7866 5.84483C48.7928 5.87509 48.8076 5.92945 48.8196 5.96558C48.8316 6.00165 48.8552 6.05952 48.8721 6.09411C48.8889 6.12871 48.9257 6.19157 48.9539 6.23381C48.9843 6.27934 49.0382 6.34464 49.0861 6.39414C49.1306 6.44012 49.1953 6.50006 49.2297 6.52745C49.2642 6.55476 49.3229 6.59766 49.3602 6.62263C49.3975 6.64759 49.4702 6.69108 49.5217 6.71914C49.5732 6.7472 49.6501 6.78554 49.6925 6.80427C49.7351 6.82299 49.8128 6.85465 49.8653 6.87463C49.9178 6.8946 50.0136 6.92685 50.0782 6.94638C50.1429 6.96585 50.2379 6.99207 50.2895 7.00464C50.3411 7.01726 50.4319 7.03717 50.4915 7.04899C50.551 7.06082 50.6509 7.07727 50.7135 7.08565C50.7761 7.09403 50.838 7.10224 50.8512 7.104L50.8751 7.10716L50.8666 7.09117C50.862 7.08227 50.7808 6.9439 50.6863 6.78356L50.5143 6.49204L50.4652 6.47604C50.4382 6.46714 50.3748 6.44365 50.3243 6.42367C50.2738 6.40376 50.1886 6.36579 50.1349 6.33928C50.0812 6.31277 49.9986 6.26539 49.9513 6.23395C49.904 6.20252 49.8421 6.15676 49.8139 6.13223C49.7856 6.10778 49.7422 6.06392 49.7174 6.03499C49.6926 6.00597 49.6593 5.96043 49.6433 5.9337C49.6273 5.90704 49.6052 5.86253 49.5942 5.83484C49.5831 5.80713 49.5695 5.76256 49.5637 5.73568C49.5581 5.70887 49.5534 5.65173 49.5533 5.60876C49.5532 5.56579 49.5583 5.50359 49.5646 5.47062C49.5708 5.43756 49.5861 5.38189 49.5985 5.34678C49.6108 5.31167 49.6384 5.24829 49.6597 5.20583C49.681 5.16345 49.7182 5.09896 49.7424 5.0626C49.7665 5.02625 49.8067 4.97006 49.8318 4.93775C49.857 4.90543 49.9126 4.83983 49.9556 4.79194C49.9985 4.74405 50.079 4.66356 50.1344 4.61309C50.1898 4.56263 50.2651 4.49734 50.3019 4.46795C50.3387 4.43858 50.4146 4.38253 50.4707 4.34339C50.5268 4.30424 50.625 4.23042 50.689 4.17931C50.7545 4.12694 50.86 4.03175 50.9306 3.96116C50.9995 3.89234 51.0782 3.80787 51.1055 3.77358C51.1329 3.73921 51.1769 3.67854 51.2034 3.63865C51.2298 3.59884 51.2691 3.53098 51.2906 3.48786C51.3122 3.44482 51.34 3.37842 51.3524 3.34045C51.3648 3.3024 51.3802 3.24136 51.3866 3.20479C51.3946 3.15859 51.3969 3.11468 51.3942 3.06114C51.3912 3.00304 51.3837 2.96154 51.3638 2.89287C51.3493 2.84278 51.3241 2.77344 51.3079 2.73884C51.2916 2.70418 51.268 2.65923 51.2552 2.63896C51.2425 2.61869 51.2117 2.57565 51.1867 2.54333C51.1618 2.51102 51.112 2.45644 51.0762 2.42214C51.0403 2.38776 50.985 2.34024 50.9534 2.31652C50.9217 2.29278 50.8677 2.25578 50.8334 2.23419C50.7991 2.21266 50.7358 2.17711 50.6927 2.15515C50.6496 2.13318 50.5828 2.10191 50.5442 2.08553C50.5057 2.06923 50.4297 2.04058 50.3753 2.02185C50.321 2.00319 50.2255 1.97484 50.1631 1.95898C50.1008 1.94303 50.0428 1.93025 50.0345 1.93055ZM45.9914 8.31289H38.6107L38.6108 8.45794C38.6108 8.53771 38.6141 8.70216 38.618 8.82335C38.6219 8.94454 38.6285 9.1098 38.6328 9.19061C38.6371 9.2714 38.6455 9.41021 38.6515 9.49908C38.6576 9.58795 38.6708 9.75483 38.6809 9.86998C38.691 9.98507 38.7107 10.1827 38.7249 10.309C38.7391 10.4353 38.7604 10.6122 38.7725 10.7019C38.7845 10.7918 38.8045 10.9329 38.8169 11.0158C38.8292 11.0986 38.8525 11.2457 38.8685 11.3426C38.8844 11.4396 38.9125 11.5995 38.9307 11.698C38.949 11.7965 38.9788 11.9501 38.9969 12.0395C39.0151 12.1289 39.0449 12.2697 39.0632 12.3525C39.0815 12.4353 39.1162 12.5857 39.1402 12.6867C39.1643 12.7877 39.2088 12.9637 39.239 13.078C39.2694 13.1922 39.3124 13.3475 39.3347 13.4231C39.3571 13.4988 39.3951 13.6235 39.4193 13.7003C39.4433 13.777 39.4849 13.9026 39.5114 13.9794C39.538 14.0561 39.5878 14.1899 39.622 14.2768C39.6563 14.3636 39.7092 14.4909 39.7396 14.5596C39.77 14.6283 39.8274 14.7506 39.8671 14.8314C39.9068 14.9122 39.9723 15.0386 40.0127 15.1124C40.053 15.1862 40.118 15.3002 40.1571 15.3658C40.1963 15.4314 40.282 15.566 40.3475 15.665C40.4132 15.7639 40.5163 15.9111 40.5767 15.9918C40.637 16.0726 40.7295 16.1916 40.7822 16.2562C40.8348 16.3209 40.9068 16.4068 40.9422 16.4472C40.9776 16.4876 41.0554 16.5735 41.1151 16.6382C41.1749 16.7028 41.2778 16.8086 41.3438 16.8734C41.4098 16.9382 41.5035 17.0275 41.5519 17.0719C41.6004 17.1163 41.6847 17.1909 41.7392 17.2376C41.7938 17.2843 41.8879 17.3621 41.9485 17.4106C42.0091 17.459 42.1033 17.5318 42.1578 17.5724C42.2124 17.6129 42.3131 17.6848 42.3818 17.7322C42.4505 17.7796 42.5626 17.8532 42.631 17.8958C42.6994 17.9384 42.8084 18.0031 42.8733 18.0393C42.9383 18.0756 43.0176 18.1182 43.0497 18.1338L43.1081 18.1622H49.0583L49.1203 18.141C49.1544 18.1294 49.2252 18.1034 49.2778 18.0832C49.3303 18.0629 49.4205 18.0261 49.4783 18.0014C49.536 17.9765 49.6402 17.9283 49.7096 17.8943C49.779 17.8601 49.8905 17.8019 49.9571 17.7648C50.0237 17.7278 50.1328 17.6635 50.1994 17.622C50.266 17.5805 50.3669 17.5144 50.4234 17.475C50.4799 17.4357 50.5742 17.3671 50.6327 17.3225C50.6913 17.278 50.7869 17.2017 50.8453 17.1529C50.9036 17.1041 50.9863 17.033 51.0289 16.9949C51.0715 16.9568 51.1759 16.856 51.2609 16.7709C51.3459 16.6857 51.4535 16.5731 51.5002 16.5206C51.5468 16.4681 51.6205 16.3822 51.664 16.3297C51.7075 16.2772 51.7853 16.178 51.8368 16.1093C51.8884 16.0406 51.9633 15.9349 52.0033 15.8743C52.0433 15.8137 52.0832 15.7519 52.0919 15.737C52.1045 15.7156 52.1138 15.7089 52.1358 15.705C52.1513 15.7023 52.225 15.6887 52.2998 15.6749C52.3745 15.6611 52.4935 15.6365 52.5642 15.6203C52.6349 15.6041 52.7538 15.5742 52.8285 15.554C52.9033 15.5337 53.047 15.4896 53.148 15.4561C53.249 15.4225 53.3911 15.371 53.4638 15.3417C53.5365 15.3124 53.6571 15.2606 53.7318 15.2268C53.8066 15.1928 53.9272 15.1333 53.9999 15.0946C54.0726 15.0558 54.1734 14.9992 54.2239 14.969C54.2744 14.9387 54.3619 14.8834 54.4185 14.8461C54.475 14.8087 54.5609 14.7492 54.6094 14.7137C54.6579 14.6783 54.736 14.6185 54.7829 14.5809C54.8298 14.5432 54.9141 14.4714 54.9702 14.4213C55.0262 14.3712 55.1267 14.2745 55.1935 14.2062C55.2603 14.138 55.3431 14.0491 55.3775 14.0087C55.4121 13.9683 55.4673 13.9013 55.5003 13.8598C55.5332 13.8183 55.5876 13.7455 55.6211 13.6982C55.6546 13.6508 55.7026 13.5801 55.7277 13.5411C55.7529 13.502 55.7903 13.4409 55.8111 13.4052C55.8318 13.3695 55.8714 13.2941 55.8992 13.2375C55.927 13.1809 55.9693 13.0966 55.9932 13.0502C56.0172 13.0037 56.0549 12.9241 56.0771 12.8732C56.0993 12.8223 56.1326 12.739 56.151 12.6881C56.1694 12.6372 56.1991 12.5449 56.2169 12.4829C56.2346 12.4209 56.2595 12.3215 56.272 12.2622C56.2846 12.2027 56.3012 12.1137 56.3091 12.0642C56.317 12.0146 56.3286 11.9273 56.3348 11.87C56.3411 11.8127 56.3498 11.6918 56.3542 11.6014C56.3599 11.4832 56.3599 11.3908 56.3541 11.2731C56.3497 11.1831 56.3428 11.0776 56.3386 11.0387C56.3344 10.9997 56.3195 10.9281 56.3055 10.8792C56.2915 10.8304 56.2656 10.7525 56.2479 10.706C56.2303 10.6595 56.1936 10.5778 56.1664 10.5242C56.1392 10.4708 56.0948 10.3934 56.0676 10.3523C56.0405 10.3112 56.0008 10.256 55.9793 10.2298C55.9579 10.2035 55.9102 10.1512 55.8734 10.1135C55.8366 10.0759 55.7817 10.0242 55.7514 9.99879C55.7211 9.9733 55.665 9.93123 55.6266 9.90523C55.5882 9.87922 55.5273 9.84191 55.4914 9.8223C55.4554 9.80269 55.3926 9.77199 55.3518 9.75407C55.3111 9.73606 55.248 9.71066 55.2116 9.69759C55.1753 9.68445 55.101 9.66174 55.0464 9.64713C54.9919 9.6325 54.9027 9.61239 54.8481 9.60255C54.7936 9.59264 54.699 9.57941 54.6381 9.57308C54.577 9.56675 54.4664 9.5595 54.392 9.55693C54.3149 9.55425 54.1954 9.55574 54.1137 9.5606C54.035 9.56523 53.9259 9.57397 53.8714 9.58006C53.8169 9.58615 53.721 9.59959 53.6584 9.60996C53.5958 9.62032 53.5092 9.63677 53.466 9.64653C53.4229 9.65624 53.384 9.66424 53.3797 9.66424C53.3743 9.66424 53.372 9.45939 53.372 8.98851V8.31281L45.9914 8.31289ZM40.1163 9.66429H40.515L40.5104 9.7212C40.508 9.75249 40.5009 9.83762 40.4948 9.91034C40.4887 9.98305 40.4803 10.1053 40.4763 10.1821C40.4721 10.2588 40.4689 10.4489 40.4689 10.6044C40.4688 10.7599 40.4721 10.9483 40.4761 11.0231C40.4802 11.0978 40.4886 11.2201 40.4947 11.2949C40.5009 11.3695 40.5141 11.5001 40.5242 11.5847C40.5342 11.6695 40.5521 11.8021 40.5642 11.8793C40.5762 11.9567 40.5978 12.0824 40.6122 12.1587C40.6266 12.235 40.6499 12.3486 40.6641 12.4113C40.6782 12.4738 40.7092 12.6011 40.7329 12.694C40.7567 12.7869 40.7977 12.934 40.824 13.0209C40.8503 13.1077 40.8938 13.2432 40.9207 13.322C40.9475 13.4007 40.9928 13.5263 41.0213 13.6011C41.0498 13.6758 41.0987 13.7981 41.13 13.8729C41.1613 13.9476 41.2141 14.0682 41.2474 14.1409C41.2806 14.2137 41.3425 14.3426 41.3849 14.4274C41.4272 14.5122 41.4935 14.6394 41.532 14.7102C41.5707 14.7808 41.6393 14.9016 41.6847 14.9786C41.73 15.0556 41.8025 15.1746 41.8459 15.243C41.8892 15.3115 41.9621 15.4228 42.0079 15.4905C42.0538 15.5581 42.134 15.672 42.1861 15.7439C42.2382 15.8156 42.3245 15.9301 42.3778 15.9983C42.4311 16.0665 42.5166 16.1723 42.5677 16.2333C42.6189 16.2945 42.7005 16.389 42.749 16.4435C42.7975 16.498 42.8819 16.5892 42.9364 16.6462C42.9909 16.7032 43.0758 16.7883 43.1252 16.8354C43.1745 16.8825 43.2133 16.921 43.2115 16.921C43.2097 16.921 43.1743 16.9058 43.1329 16.8872C43.0915 16.8686 43.013 16.8308 42.9584 16.8031C42.9039 16.7755 42.8102 16.7246 42.7503 16.6902C42.6904 16.6558 42.5846 16.59 42.5153 16.544C42.4459 16.498 42.3529 16.4329 42.3085 16.3994C42.264 16.3658 42.2029 16.3183 42.1726 16.2939C42.1423 16.2695 42.0829 16.2196 42.0404 16.1831C41.998 16.1466 41.9059 16.0605 41.8357 15.9919C41.7655 15.9232 41.6676 15.8218 41.6181 15.7665C41.5688 15.7112 41.4995 15.6309 41.4642 15.588C41.4289 15.5452 41.3593 15.4557 41.3094 15.3894C41.2595 15.323 41.1777 15.2066 41.1276 15.1308C41.0774 15.055 41.0051 14.9401 40.9667 14.8755C40.9285 14.8108 40.8768 14.7211 40.8521 14.6762C40.8273 14.6312 40.7708 14.5222 40.7265 14.4338C40.6822 14.3455 40.6174 14.2087 40.5825 14.13C40.5475 14.0512 40.4914 13.9173 40.4578 13.8325C40.4241 13.7477 40.3752 13.6188 40.349 13.5461C40.3228 13.4733 40.2799 13.3461 40.2536 13.2633C40.2273 13.1804 40.1891 13.0548 40.1687 12.9842C40.1484 12.9134 40.1135 12.7845 40.0912 12.6977C40.069 12.6108 40.0388 12.4886 40.0244 12.426C40.01 12.3633 39.9835 12.2406 39.9658 12.1532C39.9479 12.0658 39.9201 11.9187 39.9041 11.8263C39.888 11.734 39.8664 11.6023 39.8562 11.5336C39.846 11.4649 39.831 11.3592 39.8229 11.2986C39.8148 11.238 39.7999 11.114 39.7899 11.0231C39.7799 10.9322 39.765 10.7736 39.7567 10.6706C39.7485 10.5675 39.7383 10.4304 39.7341 10.3658C39.7298 10.3011 39.7244 10.1169 39.722 9.95632L39.7178 9.66437L40.1163 9.66429ZM54.3433 10.4147C54.4313 10.4141 54.5355 10.4168 54.5747 10.421C54.6139 10.4252 54.6807 10.4353 54.7231 10.4435C54.7655 10.4516 54.8386 10.4711 54.8855 10.4867C54.9324 10.5023 54.9969 10.5282 55.0288 10.5443C55.0606 10.5603 55.1084 10.588 55.135 10.6058C55.1616 10.6237 55.2024 10.6546 55.2257 10.6746C55.249 10.6945 55.2894 10.7374 55.3155 10.7697C55.3415 10.802 55.3775 10.8543 55.3953 10.8858C55.4131 10.9174 55.4392 10.972 55.4532 11.007C55.4671 11.0421 55.4855 11.0982 55.4939 11.1316C55.5024 11.165 55.5143 11.2245 55.5204 11.2638C55.5264 11.3031 55.5333 11.393 55.5359 11.4638C55.5385 11.5395 55.5368 11.639 55.5316 11.7061C55.5268 11.7687 55.5163 11.8672 55.5083 11.925C55.5002 11.9827 55.4838 12.0786 55.4718 12.138C55.4597 12.1974 55.4382 12.29 55.4239 12.3439C55.4096 12.3977 55.3836 12.4854 55.3659 12.5387C55.3483 12.5921 55.3169 12.6785 55.296 12.731C55.2752 12.7833 55.2337 12.877 55.2036 12.9392C55.1737 13.0013 55.132 13.0823 55.1112 13.1191C55.0905 13.156 55.0363 13.2423 54.9909 13.311C54.9455 13.3797 54.8726 13.4804 54.8289 13.535C54.7852 13.5895 54.6899 13.6937 54.617 13.7664C54.5441 13.8392 54.4524 13.9248 54.4132 13.9567C54.374 13.9886 54.3007 14.0447 54.2502 14.0815C54.1997 14.1183 54.1249 14.1692 54.084 14.1947C54.0431 14.2203 53.9644 14.2664 53.9092 14.2972C53.854 14.3281 53.7609 14.3754 53.7023 14.4024C53.6438 14.4293 53.5496 14.4696 53.493 14.4919C53.4365 14.5142 53.3446 14.5478 53.2888 14.5665C53.2332 14.5852 53.1349 14.6151 53.0705 14.6329C53.0061 14.6507 52.8997 14.677 52.834 14.6914C52.7683 14.7057 52.6568 14.7274 52.586 14.7395C52.5154 14.7517 52.4568 14.7616 52.4558 14.7616C52.4549 14.7616 52.4752 14.7293 52.5008 14.69C52.5265 14.6506 52.5664 14.5854 52.5895 14.5453C52.6126 14.5051 52.6605 14.4142 52.696 14.3433C52.7314 14.2724 52.781 14.1664 52.8062 14.1079C52.8315 14.0493 52.8717 13.9502 52.8958 13.8875C52.9199 13.8249 52.9607 13.7109 52.9865 13.6341C53.0123 13.5574 53.0546 13.4202 53.0806 13.3293C53.1066 13.2384 53.143 13.0996 53.1616 13.0209C53.1802 12.9421 53.2085 12.8132 53.2246 12.7344C53.2407 12.6556 53.2653 12.5218 53.2794 12.437C53.2935 12.3521 53.3117 12.2348 53.3198 12.1762C53.3279 12.1176 53.3427 11.9937 53.3528 11.9008C53.3629 11.8079 53.3762 11.6674 53.3823 11.5886C53.3884 11.5098 53.3971 11.3793 53.4017 11.2985C53.4063 11.2177 53.4122 11.0197 53.4148 10.8586L53.4196 10.5655L53.449 10.5553C53.4651 10.5496 53.5296 10.5321 53.5922 10.5163C53.6548 10.5006 53.749 10.4792 53.8015 10.4688C53.854 10.4584 53.9482 10.4434 54.0108 10.4355C54.0734 10.4277 54.1378 10.42 54.154 10.4186C54.1701 10.4171 54.2554 10.4154 54.3433 10.4147ZM46.2376 19.0805H38.3018L38.3067 19.1081C38.3094 19.1232 38.3227 19.1807 38.3362 19.2359C38.3496 19.291 38.3724 19.3726 38.3869 19.4174C38.4013 19.462 38.4298 19.5391 38.4501 19.5886C38.4705 19.6381 38.51 19.7233 38.5378 19.7781C38.5657 19.8327 38.6103 19.9121 38.6369 19.9546C38.6635 19.9969 38.7188 20.0763 38.7597 20.1308C38.8091 20.1967 38.8775 20.2735 38.963 20.3592C39.0339 20.4303 39.1233 20.5126 39.1617 20.5422C39.2001 20.5716 39.2662 20.6188 39.3086 20.6469C39.351 20.675 39.4046 20.7076 39.4277 20.7192L39.4698 20.7405L46.0997 20.7387L52.7296 20.7369L52.8156 20.7024C52.8629 20.6834 52.9378 20.6497 52.9822 20.6274C53.0266 20.6052 53.0887 20.5713 53.1203 20.5523C53.1518 20.5332 53.2074 20.4963 53.2437 20.4703C53.2801 20.4443 53.3329 20.4044 53.3612 20.3816C53.3895 20.3588 53.4556 20.2973 53.5082 20.2448C53.5608 20.1923 53.6304 20.1161 53.6629 20.0755C53.6954 20.0349 53.7454 19.9688 53.7741 19.9286C53.8028 19.8884 53.8483 19.8191 53.8751 19.7747C53.902 19.7303 53.9512 19.6394 53.9845 19.5727C54.0177 19.506 54.0576 19.4201 54.0731 19.3818C54.0886 19.3434 54.1152 19.2706 54.1323 19.2202C54.1494 19.1697 54.1658 19.1176 54.1687 19.1045L54.1739 19.0806L46.2376 19.0805Z" fill="white"/>
</svg>
