<svg width="130" height="70" viewBox="0 0 130 70" fill="none" xmlns="http://www.w3.org/2000/svg">
<g clip-path="url(#clip0_2017_1916)">
<path d="M130 4.53604C130 2.06181 128.021 0.103045 125.521 0.103045H94.5832C74.9998 -4.79519e-05 59.1665 15.6701 59.1665 35.0515C59.1665 54.3299 74.9998 70 94.5832 70C114.167 70 130 54.3299 130 35.0515V4.53604Z" fill="#FF921C"/>
<path d="M123.125 7.31934L121.875 9.2781L120.625 7.31934H119.479V11.9585H120.521V8.96882L121.875 10.9276L123.229 8.96882V11.9585H124.271V7.31934H123.125ZM112.708 29.3812C111.771 28.2472 110.417 27.3193 108.229 27.3193C104.792 27.3193 101.667 29.8967 101.667 34.6389C101.667 39.3812 104.896 41.9585 108.229 41.9585C110.313 41.9585 111.667 41.0307 112.708 39.6905V41.7523H116.771V22.3709H112.708V29.3812ZM109.271 38.4534C107.396 38.4534 105.729 36.907 105.729 34.5358C105.729 32.0616 107.292 30.6183 109.271 30.6183C111.146 30.6183 112.708 32.1647 112.708 34.5358C112.708 36.907 111.146 38.4534 109.271 38.4534ZM77.6042 27.3193C75.2083 27.3193 73.6458 27.7317 72.0833 28.4534L73.125 31.5461C74.4792 31.0307 75.5208 30.8245 77.0833 30.8245C79.0625 30.8245 80.2083 31.7523 80.2083 33.4018V33.608C79.1667 33.2987 78.125 32.9894 76.6667 32.9894C73.2292 32.9894 70.9375 34.4327 70.9375 37.5255C70.9375 40.4121 73.125 41.9585 75.8333 41.9585C77.8125 41.9585 79.1667 41.2369 80.2083 40.2059V41.7523H84.1667V33.5049C84.1667 31.6492 83.6458 29.9997 82.6042 28.9688C81.4583 27.9379 79.7917 27.3193 77.6042 27.3193ZM80.1042 36.5977C80.1042 38.041 78.8542 39.0719 76.875 39.0719C75.5208 39.0719 74.6875 38.4534 74.6875 37.3193C74.6875 35.9791 75.7292 35.3606 77.5 35.3606C78.4375 35.3606 79.375 35.5668 80.1042 35.876V36.5977ZM115.312 8.24717H116.771V11.9585H117.813V8.24717H119.271V7.31934H115.417V8.24717H115.312ZM96.25 29.3812C95.3125 28.2472 93.9583 27.3193 91.7708 27.3193C88.3333 27.3193 85.2083 29.8967 85.2083 34.6389C85.2083 39.3812 88.4375 41.9585 91.7708 41.9585C93.8542 41.9585 95.2083 41.0307 96.25 39.6905V41.7523H100.313V22.3709H96.25V29.3812ZM92.8125 38.4534C90.9375 38.4534 89.2708 36.907 89.2708 34.5358C89.2708 32.0616 90.8333 30.6183 92.8125 30.6183C94.6875 30.6183 96.25 32.1647 96.25 34.5358C96.25 36.907 94.6875 38.4534 92.8125 38.4534Z" fill="white"/>
<path d="M8.64616 33.7111C8.64616 35.8761 7.70866 36.8039 6.14616 36.8039C4.79199 36.8039 3.75033 36.0823 2.70866 34.9483L0.104492 37.8349C1.35449 39.3812 3.33366 40.6184 6.25033 40.6184C8.22949 40.6184 10.0003 39.9998 11.1462 38.8658C12.292 37.7318 12.917 36.0823 12.917 33.9173V21.8555H8.64616V33.7111ZM24.0628 34.0204C24.0628 35.8761 23.1253 36.907 21.5628 36.907C20.0003 36.907 19.0628 35.9792 19.0628 34.0204V26.0823H15.0003V35.2575C15.0003 38.4534 16.7712 40.5153 19.8962 40.5153C21.9795 40.5153 23.1253 39.4843 24.0628 38.2472V40.206H28.1253V26.1854H24.0628V34.0204ZM49.792 29.5874V26.1854H46.4587V22.5771H42.3962V26.1854H40.6253V29.5874H42.292V36.2885C42.292 39.5874 43.9587 40.5153 46.4587 40.5153C47.8128 40.5153 48.8545 40.206 49.6878 39.6905V36.4946C49.0628 36.8039 48.4378 37.0101 47.7087 37.0101C46.7712 37.0101 46.3545 36.5977 46.3545 35.6699V29.5874H49.792ZM36.3545 31.7524C34.792 31.2369 33.4378 30.8245 33.4378 30.1029C33.4378 29.4843 33.9587 29.072 34.8962 29.072C35.9378 29.072 37.3962 29.5874 38.7503 30.4122L40.3128 27.6287C38.7503 26.5977 36.7712 25.9792 35.0003 25.9792C32.0837 25.9792 29.792 27.6287 29.792 30.5153C29.792 33.2988 32.0837 34.2266 34.0628 34.8452C35.6253 35.3606 36.9795 35.5668 36.9795 36.4946C36.9795 37.2163 36.4587 37.6287 35.3128 37.6287C33.9587 37.6287 32.3962 37.0101 30.8337 35.9792L29.0628 38.6596C30.9378 40.1029 33.2295 40.8245 35.2087 40.8245C38.3337 40.8245 40.7295 39.3812 40.7295 36.2885C40.6253 33.4019 38.3337 32.3709 36.3545 31.7524Z" fill="#11151B"/>
</g>
<defs>
<clipPath id="clip0_2017_1916">
<rect width="130" height="70" fill="white"/>
</clipPath>
</defs>
</svg>
