<svg width="54" height="30" viewBox="0 0 54 30" fill="none" xmlns="http://www.w3.org/2000/svg">
<g clip-path="url(#clip0_2016_993)">
<path d="M54.0002 1.94401C54.0002 0.883632 53.1781 0.0441621 52.1397 0.0441621H39.2887C31.1541 -2.05487e-05 24.5771 6.71574 24.5771 15.0221C24.5771 23.2842 31.1541 30 39.2887 30C47.4233 30 54.0002 23.2842 54.0002 15.0221V1.94401Z" fill="#FF921C"/>
<path d="M51.1447 3.13696L50.6255 3.97643L50.1062 3.13696H49.6303V5.12518H50.063V3.84388L50.6255 4.68335L51.188 3.84388V5.12518H51.6206V3.13696H51.1447ZM46.8178 12.592C46.4283 12.106 45.8658 11.7084 44.9572 11.7084C43.5293 11.7084 42.2312 12.813 42.2312 14.8454C42.2312 16.8778 43.5726 17.9823 44.9572 17.9823C45.8226 17.9823 46.3851 17.5847 46.8178 17.0103V17.894H48.5053V9.58763H46.8178V12.592ZM45.3899 16.4801C44.611 16.4801 43.9187 15.8174 43.9187 14.8012C43.9187 13.7408 44.5678 13.1222 45.3899 13.1222C46.1687 13.1222 46.8178 13.785 46.8178 14.8012C46.8178 15.8174 46.1687 16.4801 45.3899 16.4801ZM32.236 11.7084C31.2408 11.7084 30.5918 11.8851 29.9428 12.1944L30.3755 13.5199C30.938 13.299 31.3706 13.2106 32.0197 13.2106C32.8418 13.2106 33.3178 13.6082 33.3178 14.3152V14.4035C32.8851 14.271 32.4524 14.1384 31.8466 14.1384C30.4187 14.1384 29.4668 14.757 29.4668 16.0825C29.4668 17.3196 30.3755 17.9823 31.5005 17.9823C32.3226 17.9823 32.8851 17.673 33.3178 17.2312V17.894H34.962V14.3593C34.962 13.5641 34.7456 12.8571 34.313 12.4153C33.837 11.9735 33.1447 11.7084 32.236 11.7084ZM33.2745 15.6848C33.2745 16.3034 32.7553 16.7452 31.9331 16.7452C31.3706 16.7452 31.0245 16.4801 31.0245 15.9941C31.0245 15.4197 31.4572 15.1546 32.1928 15.1546C32.5822 15.1546 32.9716 15.243 33.2745 15.3755V15.6848ZM47.8995 3.53461H48.5053V5.12518H48.938V3.53461H49.5437V3.13696H47.9428V3.53461H47.8995ZM39.9812 12.592C39.5918 12.106 39.0293 11.7084 38.1206 11.7084C36.6928 11.7084 35.3947 12.813 35.3947 14.8454C35.3947 16.8778 36.736 17.9823 38.1206 17.9823C38.986 17.9823 39.5485 17.5847 39.9812 17.0103V17.894H41.6687V9.58763H39.9812V12.592ZM38.5533 16.4801C37.7745 16.4801 37.0822 15.8174 37.0822 14.8012C37.0822 13.7408 37.7312 13.1222 38.5533 13.1222C39.3322 13.1222 39.9812 13.785 39.9812 14.8012C39.9812 15.8174 39.3322 16.4801 38.5533 16.4801Z" fill="white"/>
<path d="M3.59105 14.4477C3.59105 15.3755 3.20162 15.7732 2.55258 15.7732C1.99008 15.7732 1.55739 15.4639 1.1247 14.9779L0.0429688 16.215C0.5622 16.8777 1.38432 17.4079 2.59585 17.4079C3.41797 17.4079 4.15355 17.1428 4.62951 16.6568C5.10547 16.1708 5.36508 15.4639 5.36508 14.5361V9.3667H3.59105V14.4477ZM9.99489 14.5802C9.99489 15.3755 9.60547 15.8174 8.95643 15.8174C8.30739 15.8174 7.91797 15.4197 7.91797 14.5802V11.1782H6.23047V15.1104C6.23047 16.4801 6.96605 17.3638 8.26412 17.3638C9.12951 17.3638 9.60547 16.9219 9.99489 16.3917V17.2312H11.6824V11.2224H9.99489V14.5802ZM20.6824 12.6804V11.2224H19.2978V9.67598H17.6103V11.2224H16.8747V12.6804H17.567V15.5523C17.567 16.9661 18.2593 17.3638 19.2978 17.3638C19.8603 17.3638 20.293 17.2312 20.6391 17.0103V15.6406C20.3795 15.7732 20.1199 15.8615 19.817 15.8615C19.4276 15.8615 19.2545 15.6848 19.2545 15.2872V12.6804H20.6824ZM15.1007 13.6082C14.4516 13.3873 13.8891 13.2106 13.8891 12.9013C13.8891 12.6362 14.1055 12.4595 14.4949 12.4595C14.9276 12.4595 15.5334 12.6804 16.0959 13.0339L16.7449 11.8409C16.0959 11.3991 15.2737 11.134 14.5382 11.134C13.3266 11.134 12.3747 11.8409 12.3747 13.078C12.3747 14.271 13.3266 14.6686 14.1487 14.9337C14.7978 15.1546 15.3603 15.243 15.3603 15.6406C15.3603 15.9499 15.1439 16.1266 14.668 16.1266C14.1055 16.1266 13.4564 15.8615 12.8074 15.4197L12.0718 16.5685C12.8507 17.187 13.8026 17.4963 14.6247 17.4963C15.9228 17.4963 16.918 16.8777 16.918 15.5523C16.8747 14.3152 15.9228 13.8733 15.1007 13.6082Z" fill="white"/>
</g>
<defs>
<clipPath id="clip0_2016_993">
<rect width="54" height="30" fill="white"/>
</clipPath>
</defs>
</svg>
