<svg width="74" height="74" viewBox="0 0 74 74" fill="none" xmlns="http://www.w3.org/2000/svg">
<path d="M37.2614 0.00171698C36.4582 -0.00328199 35.5937 0.00304232 35.3403 0.0154025C35.0871 0.0280372 34.6192 0.0569901 34.3007 0.0804133C33.9823 0.103576 33.4967 0.145949 33.2217 0.174376C32.9467 0.202803 32.4909 0.256234 32.2085 0.293082C31.9264 0.329666 31.5058 0.389152 31.2742 0.42495C31.0427 0.460747 30.5926 0.537602 30.2742 0.595767C29.9557 0.653937 29.3991 0.766849 29.0373 0.8466C28.6754 0.926612 28.1485 1.05085 27.8664 1.12296C27.5843 1.19482 27.1106 1.32352 26.8137 1.40881C26.5169 1.49435 26.0469 1.63595 25.7695 1.72412C25.4921 1.81203 25.0331 1.96627 24.7497 2.06681C24.4663 2.16736 23.9826 2.3466 23.6752 2.46478C23.3675 2.58322 22.8733 2.78352 22.5764 2.91012C22.2796 3.03672 21.8001 3.24912 21.5106 3.3823C21.2211 3.51522 20.6526 3.79343 20.2473 4.00031C19.8421 4.20719 19.3033 4.49226 19.0499 4.63385C18.7967 4.77518 18.3288 5.04734 18.0104 5.23869C17.6919 5.42978 17.1945 5.7393 16.9051 5.92671C16.6156 6.11411 16.1361 6.43759 15.8392 6.64551C15.5426 6.8537 15.0865 7.18403 14.826 7.37983C14.5654 7.57565 14.157 7.89255 13.918 8.0839C13.6793 8.27524 13.3062 8.58214 13.089 8.76557C12.8719 8.94929 12.4753 9.297 12.2074 9.5381C11.9398 9.77945 11.4142 10.2788 11.0397 10.648C10.6655 11.0171 10.1726 11.5205 9.94465 11.7667C9.71648 12.0128 9.41409 12.3444 9.27223 12.5036C9.13064 12.6629 8.80247 13.0477 8.54297 13.359C8.28348 13.6702 7.90293 14.1439 7.69712 14.4119C7.49132 14.6795 7.19762 15.0709 7.04445 15.2812C6.89154 15.4915 6.61232 15.8884 6.42391 16.163C6.23547 16.4375 5.94598 16.8755 5.78046 17.136C5.61492 17.3966 5.34859 17.8293 5.1886 18.0972C5.02859 18.3654 4.75963 18.8334 4.59121 19.1369C4.42251 19.4406 4.13776 19.9791 3.95855 20.3339C3.77933 20.6885 3.51827 21.2275 3.37801 21.5315C3.238 21.8355 3.02826 22.3085 2.9122 22.5825C2.7964 22.8565 2.62429 23.2768 2.53007 23.5169C2.43585 23.7566 2.25953 24.2288 2.13821 24.5663C2.01688 24.9034 1.8403 25.4225 1.74581 25.7193C1.65134 26.0162 1.51001 26.4805 1.43185 26.7511C1.35395 27.0217 1.22447 27.4978 1.1442 27.8089C1.0642 28.12 0.933661 28.6709 0.853919 29.0328C0.774442 29.3947 0.661803 29.9514 0.603379 30.2699C0.545216 30.5884 0.462056 31.0798 0.418893 31.3622C0.375734 31.6443 0.31652 32.0649 0.287306 32.2965C0.258357 32.5282 0.210721 32.9485 0.181511 33.2309C0.152297 33.5131 0.111246 33.981 0.0899266 34.2706C0.0686077 34.5601 0.037292 35.1168 0.0204509 35.5076C0.000977952 35.954 -0.00507611 36.6784 0.00439528 37.4553C0.0128159 38.1357 0.0320282 38.8819 0.0472932 39.1135C0.0628185 39.3451 0.0936135 39.7597 0.116244 40.0347C0.138613 40.3098 0.18625 40.7954 0.221513 41.1139C0.257041 41.4323 0.328098 41.9819 0.379152 42.3349C0.43047 42.6881 0.519684 43.239 0.577582 43.5588C0.635215 43.8788 0.741015 44.4131 0.812332 44.7461C0.883654 45.079 1.00182 45.5923 1.07471 45.8866C1.14761 46.1811 1.25551 46.5956 1.31447 46.8078C1.37341 47.0202 1.49711 47.4426 1.58948 47.7466C1.68186 48.0506 1.84529 48.5599 1.95293 48.8784C2.06056 49.1968 2.249 49.7238 2.37216 50.0496C2.49506 50.3752 2.69639 50.8845 2.81956 51.1814C2.94272 51.4783 3.14773 51.9521 3.27511 52.2342C3.40222 52.5164 3.68724 53.1086 3.90805 53.5502C4.12885 53.9919 4.44727 54.6002 4.61521 54.9023C4.78337 55.2042 5.03444 55.6425 5.17341 55.8762C5.31237 56.1096 5.52659 56.4605 5.64949 56.656C5.77239 56.8513 6.03898 57.2601 6.24191 57.5641C6.44508 57.8681 6.76456 58.33 6.95219 58.5906C7.1401 58.8512 7.40669 59.2123 7.54462 59.3934C7.68252 59.5742 7.93753 59.9 8.11124 60.1172C8.28494 60.3343 8.52258 60.6244 8.63943 60.762L8.85208 61.0121L8.86524 66.9076L8.8784 72.8032L8.94814 72.9943C8.98656 73.0996 9.05446 73.2417 9.09894 73.3101C9.14341 73.3788 9.215 73.472 9.25789 73.5175C9.30105 73.5631 9.38711 73.6415 9.44948 73.692C9.51159 73.7426 9.62449 73.8152 9.70029 73.8531C9.77608 73.891 9.91214 73.9397 10.0029 73.961C10.1474 73.9953 11.8957 74 24.0633 74C32.9141 74.0003 38.1738 73.9908 38.551 73.974C38.8769 73.9595 39.3979 73.9295 39.709 73.9071C40.0203 73.8847 40.5527 73.8371 40.8922 73.801C41.232 73.7652 41.7707 73.7 42.0897 73.6565C42.4086 73.6128 42.9126 73.5357 43.2092 73.4852C43.5061 73.4344 43.9856 73.3457 44.2751 73.2878C44.5645 73.2299 45.0814 73.1178 45.4235 73.0383C45.7657 72.9588 46.3257 72.8177 46.6684 72.7245C47.011 72.6313 47.5658 72.4705 47.9016 72.3671C48.2374 72.2639 48.7669 72.0907 49.078 71.9828C49.389 71.8746 49.8925 71.6907 50.1964 71.5741C50.5004 71.4575 51.0096 71.2522 51.3281 71.1182C51.6465 70.9842 52.1321 70.771 52.4071 70.6447C52.6821 70.5181 53.1676 70.2844 53.4861 70.1254C53.8045 69.9662 54.2725 69.7232 54.5256 69.5856C54.7791 69.4479 55.1936 69.2163 55.4467 69.0707C55.7002 68.9252 56.1263 68.6707 56.3942 68.5051C56.6621 68.3396 57.1179 68.0474 57.4074 67.8559C57.6969 67.6642 58.1706 67.3382 58.4601 67.131C58.7496 66.9241 59.1346 66.6417 59.3154 66.5035C59.4964 66.3656 59.8517 66.0869 60.1049 65.8845C60.3583 65.6821 60.8023 65.313 61.0918 65.0646C61.3813 64.8161 61.8611 64.3874 62.1576 64.1121C62.4545 63.837 62.9932 63.3108 63.3551 62.9435C63.7169 62.576 64.2101 62.0559 64.4509 61.7882C64.692 61.5203 65.0347 61.1294 65.2126 60.9197C65.3905 60.7096 65.7021 60.3306 65.9044 60.0774C66.1071 59.824 66.4458 59.3857 66.6572 59.1036C66.8685 58.8212 67.2059 58.3545 67.4067 58.0663C67.6077 57.7778 67.9399 57.2804 68.1449 56.9608C68.3499 56.641 68.6483 56.1599 68.8083 55.892C68.9681 55.6238 69.2371 55.1558 69.406 54.8523C69.5747 54.5486 69.8876 53.9506 70.1013 53.5237C70.315 53.0967 70.5943 52.5161 70.7216 52.234C70.8493 51.9518 71.0572 51.472 71.1841 51.168C71.3109 50.864 71.5277 50.3134 71.6662 49.9441C71.8044 49.5748 72.0004 49.0242 72.102 48.7202C72.2036 48.4162 72.3578 47.9306 72.4447 47.6411C72.5315 47.3515 72.6684 46.8717 72.7489 46.5751C72.8291 46.2782 72.9594 45.7571 73.0384 45.417C73.1173 45.0767 73.2292 44.5616 73.2873 44.272C73.3455 43.9825 73.4405 43.4614 73.4984 43.114C73.5563 42.7665 73.6337 42.2593 73.6705 41.9869C73.7071 41.7145 73.766 41.217 73.8016 40.8815C73.8374 40.5459 73.8845 40.0166 73.9068 39.7055C73.9292 39.3941 73.9592 38.873 73.9737 38.5474C73.9882 38.2215 74 37.5227 74 36.9945C74 36.466 73.9882 35.7672 73.9737 35.4416C73.9592 35.1157 73.9292 34.5946 73.9068 34.2835C73.8845 33.9721 73.8374 33.4431 73.8016 33.1075C73.766 32.7719 73.7071 32.2745 73.6705 32.002C73.6337 31.7296 73.5563 31.2224 73.4984 30.875C73.4405 30.5276 73.3455 30.0064 73.2873 29.7169C73.2292 29.4274 73.1173 28.9123 73.0384 28.5719C72.9594 28.2316 72.8291 27.7105 72.7486 27.4139C72.6681 27.117 72.537 26.6553 72.4573 26.3874C72.3775 26.1194 72.2236 25.6338 72.1152 25.3082C72.0065 24.9824 71.8046 24.4139 71.6662 24.0448C71.528 23.6756 71.3109 23.125 71.1841 22.821C71.0572 22.517 70.8493 22.0371 70.7222 21.755C70.5948 21.4726 70.3156 20.8922 70.1016 20.4653C69.8877 20.0381 69.5745 19.4401 69.4058 19.1361C69.2371 18.8321 68.9397 18.3183 68.7452 17.9943C68.5507 17.6703 68.2399 17.1713 68.0546 16.8855C67.8693 16.5999 67.5485 16.1248 67.3417 15.8298C67.1348 15.5347 66.8056 15.0802 66.6098 14.8196C66.414 14.559 66.0972 14.1503 65.9058 13.9116C65.7145 13.6726 65.4076 13.2996 65.2242 13.0825C65.0405 12.8653 64.6929 12.4687 64.4518 12.2007C64.2105 11.9331 63.7112 11.4077 63.342 11.0332C62.9731 10.6586 62.4638 10.1596 62.2104 9.92402C61.9572 9.68845 61.584 9.35051 61.3814 9.17285C61.1787 8.99545 60.8295 8.69724 60.605 8.51011C60.3808 8.32297 59.9697 7.99293 59.6918 7.77654C59.4137 7.56019 58.9518 7.21383 58.6655 7.00667C58.3789 6.79979 57.9786 6.5171 57.7759 6.37868C57.5733 6.24023 57.2062 5.99756 56.9601 5.83939C56.714 5.68121 56.2995 5.42301 56.039 5.2656C55.7784 5.10847 55.281 4.82131 54.9337 4.62785C54.5863 4.43413 53.9881 4.11778 53.6046 3.92459C53.2212 3.7314 52.6883 3.47293 52.4204 3.35004C52.1524 3.22712 51.6966 3.02603 51.4071 2.90312C51.1176 2.7802 50.6203 2.57885 50.3018 2.45567C49.9834 2.33223 49.4846 2.14772 49.1936 2.0456C48.9028 1.94321 48.3993 1.77634 48.0751 1.67501C47.7511 1.57341 47.249 1.42417 46.9595 1.34337C46.67 1.26257 46.1489 1.12675 45.8016 1.04148C45.4542 0.95646 44.9744 0.845124 44.7357 0.794064C44.497 0.743265 44.0115 0.648251 43.6567 0.583236C43.3022 0.517961 42.7219 0.422947 42.3671 0.371623C42.0127 0.320298 41.4619 0.249498 41.1434 0.214225C40.825 0.178958 40.4165 0.136846 40.2354 0.121054C40.0546 0.104996 39.6401 0.0736771 39.3143 0.0510396C38.9254 0.0241938 38.2207 0.00750652 37.2614 0.00171698Z" fill="#FF921C"/>
<path d="M26.7858 49.2104C26.9757 49.2104 27.1439 49.2555 27.2902 49.3458C27.4396 49.4361 27.5548 49.5654 27.6358 49.7335C27.7167 49.8985 27.7572 50.0916 27.7572 50.3127C27.7572 50.5618 27.7121 50.7829 27.6218 50.9759C27.5315 51.1659 27.4038 51.3138 27.2388 51.4196C27.0769 51.5255 26.8901 51.5784 26.6784 51.5784C26.504 51.5784 26.353 51.5426 26.2254 51.471C26.0977 51.3994 25.9996 51.2951 25.9311 51.1581L25.8985 51.5457H25.4268L25.6883 48.2529H26.16L26.0526 49.5794C26.1304 49.4642 26.2332 49.3739 26.3608 49.3085C26.4916 49.2431 26.6333 49.2104 26.7858 49.2104ZM26.613 51.2047C26.8216 51.2047 26.9835 51.1269 27.0987 50.9712C27.217 50.8155 27.2762 50.6006 27.2762 50.3266C27.2762 50.09 27.2217 49.9078 27.1127 49.7801C27.0038 49.6525 26.8481 49.5886 26.6457 49.5886C26.4402 49.5886 26.2783 49.668 26.16 49.8269C26.0417 49.9825 25.9825 50.1958 25.9825 50.4668C25.9825 50.7065 26.037 50.8902 26.146 51.0179C26.255 51.1424 26.4106 51.2047 26.613 51.2047Z" fill="white"/>
<path d="M30.4173 49.2695L28.8154 52.385H28.3391L28.8014 51.4836L28.0215 49.2697H28.5025L29.0816 51.0072L29.9362 49.2697L30.4173 49.2695Z" fill="white"/>
<path d="M31.4766 51.1851L31.7661 51.1664C31.928 51.154 32.051 51.1041 32.1351 51.017C32.2191 50.9298 32.2674 50.799 32.2798 50.6246L32.4667 48.252H32.9524L32.7655 50.6246C32.7437 50.9235 32.6519 51.1493 32.49 51.3019C32.3312 51.4545 32.1024 51.5401 31.8035 51.5588L31.4952 51.5821L31.4766 51.1851Z" fill="white"/>
<path d="M35.5839 49.2656L35.4065 51.545H34.9441L34.9721 51.1994C34.8943 51.3208 34.79 51.4142 34.6592 51.4796C34.5316 51.545 34.3884 51.5777 34.2296 51.5777C33.9774 51.5777 33.7859 51.5107 33.6551 51.3769C33.5244 51.2398 33.459 51.0406 33.459 50.779C33.459 50.723 33.4605 50.6809 33.4637 50.6529L33.5757 49.2657H34.0474L33.9354 50.6249L33.9307 50.7089C33.9307 51.0328 34.0817 51.1947 34.3837 51.1947C34.5674 51.1947 34.7137 51.1371 34.8227 51.0219C34.9317 50.9067 34.9939 50.7479 35.0095 50.5455L35.1122 49.2657L35.5839 49.2656Z" fill="white"/>
<path d="M36.8978 51.5771C36.5304 51.5771 36.2113 51.4805 35.9404 51.2875L36.1086 50.9465C36.3514 51.1271 36.6176 51.2174 36.9072 51.2174C37.0691 51.2174 37.1905 51.1925 37.2714 51.1427C37.3555 51.0929 37.3975 51.0212 37.3975 50.9278C37.3975 50.8375 37.3555 50.769 37.2714 50.7223C37.1874 50.6725 37.0566 50.6227 36.8791 50.5729C36.7172 50.5261 36.5865 50.481 36.4868 50.4374C36.3872 50.3938 36.3016 50.33 36.23 50.2459C36.1584 50.1587 36.1226 50.0466 36.1226 49.9096C36.1226 49.6979 36.2066 49.5282 36.3748 49.4005C36.546 49.2728 36.7717 49.209 37.0519 49.209C37.2169 49.209 37.3757 49.2355 37.5283 49.2884C37.6809 49.3413 37.807 49.4129 37.9066 49.5032L37.7385 49.8349C37.5205 49.6574 37.2917 49.5686 37.0519 49.5686C36.8963 49.5686 36.7764 49.5951 36.6923 49.648C36.6083 49.701 36.5662 49.7788 36.5662 49.8816C36.5662 49.9719 36.6067 50.0404 36.6877 50.0871C36.7717 50.1338 36.9025 50.1821 37.08 50.2319C37.2419 50.2786 37.3726 50.3237 37.4723 50.3673C37.5719 50.4109 37.6575 50.4763 37.7291 50.5635C37.8007 50.6476 37.8365 50.7597 37.8365 50.8998C37.8365 51.1115 37.7509 51.2781 37.5797 51.3996C37.4115 51.5179 37.1843 51.5771 36.8978 51.5771Z" fill="white"/>
<path d="M38.9702 50.6996L38.9655 50.779C38.9655 51.0686 39.1087 51.2134 39.3952 51.2134C39.4606 51.2134 39.5306 51.2087 39.6053 51.1994L39.554 51.5544C39.4792 51.57 39.4014 51.5777 39.3204 51.5777C39.0527 51.5777 38.8472 51.5139 38.704 51.3862C38.5639 51.2555 38.4938 51.0686 38.4938 50.8257C38.4938 50.7759 38.4954 50.7386 38.4985 50.7136L38.5825 49.63H38.1436L38.1716 49.2657H38.6106L38.6666 48.5791H39.1383L39.0823 49.2657H39.7081L39.6801 49.63H39.0542L38.9702 50.6996Z" fill="white"/>
<path d="M42.2315 50.733H40.5689L40.1579 51.5457H39.6582L41.3815 48.2529H41.7831L42.9927 51.5457H42.5164L42.2315 50.733ZM42.0961 50.35L41.5496 48.79L40.7604 50.35H42.0961Z" fill="white"/>
<path d="M45.7267 48.252L45.4698 51.5448H45.0028L45.0308 51.2039C44.9561 51.3222 44.8533 51.414 44.7226 51.4794C44.5949 51.5448 44.4532 51.5775 44.2976 51.5775C44.1076 51.5775 43.938 51.5339 43.7885 51.4467C43.6422 51.3564 43.5285 51.2288 43.4476 51.0637C43.3666 50.8987 43.3262 50.7056 43.3262 50.4846C43.3262 50.2323 43.3713 50.0097 43.4616 49.8167C43.5519 49.6236 43.678 49.4741 43.8399 49.3683C44.0049 49.2624 44.1933 49.2094 44.405 49.2094C44.5762 49.2094 44.7257 49.2453 44.8533 49.3169C44.981 49.3885 45.0791 49.4913 45.1476 49.6251L45.255 48.252L45.7267 48.252ZM44.433 51.204C44.6416 51.204 44.8051 51.1261 44.9234 50.9704C45.0417 50.8116 45.1008 50.5968 45.1008 50.3259C45.1008 50.0861 45.0464 49.904 44.9374 49.7794C44.8284 49.6517 44.6727 49.5879 44.4704 49.5879C44.2617 49.5879 44.0983 49.6658 43.98 49.8214C43.8617 49.9771 43.8025 50.1904 43.8025 50.4613C43.8025 50.698 43.857 50.8817 43.966 51.0125C44.0781 51.1402 44.2337 51.204 44.433 51.204Z" fill="white"/>
<path d="M48.4893 48.252L48.2325 51.5448H47.7655L47.7935 51.2039C47.7188 51.3222 47.616 51.414 47.4852 51.4794C47.3576 51.5448 47.2159 51.5775 47.0603 51.5775C46.8703 51.5775 46.7006 51.5339 46.5512 51.4467C46.4049 51.3564 46.2912 51.2288 46.2103 51.0637C46.1293 50.8987 46.0889 50.7056 46.0889 50.4846C46.0889 50.2323 46.134 50.0097 46.2243 49.8167C46.3146 49.6236 46.4407 49.4741 46.6026 49.3683C46.7676 49.2624 46.956 49.2094 47.1677 49.2094C47.3389 49.2094 47.4884 49.2453 47.616 49.3169C47.7437 49.3885 47.8418 49.4913 47.9102 49.6251L48.0177 48.252L48.4893 48.252ZM47.1957 51.204C47.4043 51.204 47.5678 51.1261 47.6861 50.9704C47.8044 50.8116 47.8635 50.5968 47.8635 50.3259C47.8635 50.0861 47.809 49.904 47.7001 49.7794C47.5911 49.6517 47.4354 49.5879 47.2331 49.5879C47.0244 49.5879 46.861 49.6658 46.7427 49.8214C46.6244 49.9771 46.5652 50.1904 46.5652 50.4613C46.5652 50.698 46.6197 50.8817 46.7287 51.0125C46.8408 51.1402 46.9964 51.204 47.1957 51.204Z" fill="white"/>
<path d="M9.65219 46.1215C10.9972 46.1215 12.2581 45.6171 13.204 44.6713C14.1497 43.7254 14.6751 42.4643 14.6751 41.1191V29.6221L11.3756 30.673V41.1191C11.3756 42.0649 10.598 42.8216 9.65225 42.8216C9.18991 42.8216 8.76959 42.6534 8.43333 42.3382L6.10059 44.6712C7.0463 45.617 8.30714 46.1215 9.65219 46.1215Z" fill="white"/>
<path d="M16.9287 46.0384H22.3087C23.4226 46.0384 24.5154 45.8282 25.5242 45.4078C26.512 44.9875 27.3946 44.3989 28.1512 43.6423C28.9288 42.9066 29.5173 42.0239 29.9376 41.0361C30.3789 40.0272 30.5891 38.9343 30.5891 37.8202C30.5891 36.7062 30.3789 35.6132 29.9376 34.6043C29.5173 33.6165 28.9078 32.7547 28.1512 31.9981C27.3946 31.2415 26.512 30.653 25.5242 30.2536C24.4945 29.8332 23.4226 29.623 22.3087 29.623H16.9287V46.0384ZM22.3087 42.7385H20.228V32.9216H22.3085C23.6535 32.9216 24.9144 33.426 25.8392 34.3509C26.7849 35.2757 27.2893 36.4947 27.2893 37.8188C27.2893 39.143 26.7849 40.383 25.8392 41.3079C24.8935 42.2327 23.6536 42.7371 22.3085 42.7371L22.3087 42.7385Z" fill="white"/>
<path d="M31.9455 40.8466V46.0172H35.0979V40.8466C35.0979 38.8079 36.7581 37.1684 38.7757 37.1684V34.0156C37.851 34.0156 36.9683 34.1838 36.1276 34.5411C35.3079 34.8984 34.5724 35.3818 33.9629 36.0124C33.3324 36.6429 32.828 37.3786 32.4917 38.1773C32.1345 39.0181 31.9455 39.9218 31.9455 40.8466Z" fill="white"/>
<path d="M39.502 34.9396V46.0163H42.6755V33.8887L39.502 34.9396Z" fill="white"/>
<path d="M53.5419 36.0542C52.5542 35.0453 51.2092 34.4989 49.801 34.4989C49.0654 34.4989 48.3299 34.646 47.6783 34.9403V34.1836H44.5259V39.3331C44.5049 39.4802 44.5049 39.6483 44.5049 39.7955H44.5259V46.017H47.6783V39.5012C47.8254 38.4503 48.7291 37.6516 49.801 37.6516C50.9779 37.6516 51.9446 38.6184 51.9446 39.7954V46.0169H55.097V39.7954C55.097 38.3872 54.5507 37.0631 53.5419 36.0542Z" fill="white"/>
<path d="M61.0482 41.6653L63.8433 46.0162H67.5422L63.2549 39.3532L67.8155 34.3089H63.7567L59.7846 38.7437V29.0752H56.6113V46.016H59.7848V43.0313L61.0482 41.6653Z" fill="white"/>
<path d="M36.8671 16.7949L36.8477 16.792L36.5584 17.0552C36.3993 17.2 36.2698 17.3192 36.2705 17.3201C36.2713 17.3211 36.3044 17.3183 36.3439 17.3141C36.3835 17.3099 36.4552 17.304 36.5032 17.3009C36.555 17.2977 36.637 17.2966 36.7046 17.2983C36.772 17.3001 36.8473 17.3051 36.889 17.3107C36.9277 17.3158 36.9853 17.3258 37.0169 17.333C37.0487 17.3401 37.0967 17.3536 37.1237 17.363C37.1507 17.3724 37.1944 17.3911 37.2208 17.4046C37.2471 17.4181 37.2853 17.4415 37.3057 17.4567C37.326 17.4718 37.3547 17.4973 37.3695 17.5133C37.3843 17.5294 37.4046 17.5549 37.4147 17.57C37.4247 17.5852 37.4385 17.6101 37.4453 17.6254C37.4521 17.6408 37.4618 17.6695 37.4668 17.6893C37.472 17.7095 37.4761 17.7418 37.4761 17.763C37.4761 17.7902 37.4725 17.8121 37.4634 17.8411C37.4565 17.8632 37.4424 17.899 37.4322 17.9205C37.422 17.942 37.3985 17.9824 37.3801 18.0103C37.3618 18.0381 37.3327 18.0784 37.3157 18.0998C37.2987 18.1211 37.2541 18.17 37.2166 18.2084C37.1792 18.2468 37.1189 18.3038 37.0827 18.335C37.0465 18.3662 36.9567 18.4366 36.8832 18.4915C36.8096 18.5464 36.7148 18.6192 36.6724 18.6533C36.6301 18.6874 36.5659 18.7406 36.5299 18.7714C36.4939 18.8023 36.4261 18.8627 36.3794 18.9058C36.3326 18.9489 36.263 19.0166 36.2246 19.0563C36.1863 19.0961 36.1328 19.1537 36.1058 19.1844C36.0788 19.215 36.039 19.262 36.0174 19.2887C35.9959 19.3154 35.9594 19.3634 35.9363 19.3955C35.9133 19.4275 35.8776 19.482 35.8569 19.5166C35.8362 19.5512 35.808 19.6073 35.794 19.6414C35.7801 19.6755 35.7576 19.7373 35.744 19.7787C35.7304 19.8201 35.7128 19.881 35.705 19.9139C35.6971 19.9469 35.6863 20.0005 35.681 20.0331C35.6757 20.0656 35.6689 20.1255 35.6659 20.1661C35.6629 20.2067 35.6618 20.2628 35.6635 20.2908C35.6653 20.3188 35.6699 20.3668 35.674 20.3973C35.678 20.4279 35.6887 20.4815 35.6976 20.5165C35.7066 20.5515 35.7221 20.6008 35.732 20.626C35.7419 20.6511 35.7597 20.6913 35.7717 20.7151C35.7836 20.7389 35.804 20.7757 35.8171 20.7968C35.8302 20.8179 35.8567 20.8562 35.876 20.882C35.8953 20.9079 35.9439 20.9619 35.9839 21.0021C36.024 21.0424 36.0775 21.0917 36.1029 21.1118C36.1283 21.1318 36.1697 21.1625 36.1951 21.18C36.2204 21.1975 36.2609 21.2238 36.285 21.2385C36.309 21.2531 36.3533 21.2783 36.3834 21.2944C36.4135 21.3106 36.4685 21.3381 36.5057 21.3556C36.5429 21.373 36.6089 21.4013 36.6523 21.4184C36.6957 21.4355 36.7641 21.4605 36.8043 21.474C36.8445 21.4874 36.9079 21.5072 36.945 21.5179C36.9822 21.5286 37.0476 21.5461 37.0903 21.5568C37.133 21.5676 37.2116 21.585 37.265 21.5956C37.3184 21.6063 37.3981 21.6206 37.4421 21.6274C37.4862 21.6341 37.5495 21.6428 37.5828 21.6467C37.6162 21.6505 37.6441 21.653 37.645 21.6521C37.6458 21.6513 37.5706 21.5216 37.4778 21.364L37.309 21.0774L37.2506 21.0574C37.2185 21.0464 37.1616 21.0253 37.1243 21.0106C37.0869 20.9958 37.0127 20.9623 36.9593 20.936C36.9059 20.9097 36.8388 20.8734 36.8101 20.8552C36.7815 20.8371 36.7358 20.8058 36.7086 20.7858C36.6814 20.7658 36.635 20.7253 36.6054 20.6959C36.5759 20.6664 36.5375 20.6222 36.5202 20.5977C36.5028 20.5731 36.4793 20.5349 36.4679 20.5129C36.4565 20.4909 36.4406 20.4526 36.4327 20.4278C36.4247 20.403 36.4147 20.3627 36.4104 20.338C36.4045 20.3042 36.4033 20.2761 36.4053 20.2229C36.4069 20.1812 36.4121 20.1337 36.4179 20.1064C36.4233 20.081 36.4352 20.0385 36.4442 20.0118C36.4534 19.9851 36.469 19.9447 36.4791 19.922C36.4891 19.8993 36.5094 19.8589 36.5242 19.8322C36.5388 19.8056 36.5629 19.7652 36.5775 19.7425C36.592 19.7198 36.6186 19.6816 36.6364 19.6575C36.6542 19.6335 36.6907 19.5876 36.7174 19.5555C36.7442 19.5234 36.7986 19.4635 36.8384 19.4225C36.8782 19.3815 36.9425 19.3196 36.9811 19.285C37.0199 19.2505 37.0766 19.202 37.1073 19.1773C37.138 19.1526 37.197 19.1088 37.2383 19.08C37.2797 19.0511 37.3474 19.0019 37.3887 18.9705C37.4301 18.9392 37.488 18.8936 37.5173 18.8691C37.5467 18.8446 37.6026 18.7952 37.6416 18.7593C37.6806 18.7234 37.7388 18.6651 37.771 18.6299C37.8032 18.5945 37.8416 18.5509 37.8564 18.5327C37.8712 18.5146 37.8995 18.4775 37.9194 18.4502C37.9392 18.423 37.968 18.3799 37.9835 18.3546C37.9989 18.3292 38.0263 18.2779 38.0443 18.2405C38.0623 18.2031 38.0847 18.1494 38.0941 18.121C38.1036 18.0926 38.1158 18.0479 38.1214 18.0215C38.127 17.9949 38.1328 17.9445 38.1344 17.9081C38.1361 17.8675 38.1352 17.8287 38.1315 17.8062C38.1284 17.7861 38.1181 17.7414 38.1086 17.7067C38.0991 17.672 38.0816 17.6196 38.0696 17.5902C38.0577 17.5609 38.0368 17.5172 38.0234 17.4932C38.0099 17.4692 37.9889 17.4353 37.9768 17.418C37.9646 17.4006 37.9418 17.3706 37.9261 17.3512C37.9104 17.3319 37.877 17.2955 37.852 17.2704C37.8269 17.2454 37.7844 17.2072 37.7576 17.1856C37.7308 17.164 37.6894 17.1333 37.6656 17.1173C37.6418 17.1013 37.6022 17.076 37.5776 17.061C37.553 17.0461 37.5008 17.0178 37.4615 16.9982C37.4222 16.9785 37.3609 16.9501 37.3251 16.935C37.2894 16.9199 37.2154 16.8926 37.1607 16.8744C37.106 16.8561 37.0219 16.8314 36.9739 16.8195C36.9258 16.8076 36.8778 16.7965 36.8671 16.7949ZM34.1967 18.0671C34.1921 18.0671 34.0965 18.1506 33.9843 18.2525C33.8722 18.3544 33.7809 18.4382 33.7816 18.4386C33.7822 18.439 33.8078 18.4365 33.8384 18.4329C33.8691 18.4294 33.9412 18.425 33.9986 18.4232C34.0664 18.4211 34.1256 18.4221 34.1679 18.4258C34.2036 18.429 34.2545 18.4359 34.2811 18.4412C34.3076 18.4466 34.3472 18.4565 34.369 18.4633C34.3908 18.4701 34.4304 18.4869 34.4571 18.5007C34.4953 18.5204 34.514 18.534 34.545 18.5645C34.5764 18.5955 34.5883 18.6117 34.6044 18.6446C34.6176 18.6717 34.6262 18.6978 34.6296 18.7208C34.6339 18.7494 34.6335 18.7614 34.6273 18.7863C34.6231 18.8032 34.6089 18.8388 34.5958 18.8655C34.5826 18.8922 34.5613 18.9285 34.5485 18.9462C34.5355 18.9638 34.5076 18.9985 34.4862 19.0231C34.4649 19.0478 34.4223 19.0908 34.3916 19.1187C34.3609 19.1467 34.2878 19.2057 34.2292 19.2498C34.1706 19.294 34.0975 19.3504 34.0667 19.3751C34.0359 19.3998 33.991 19.4368 33.967 19.4574C33.943 19.4779 33.8905 19.5251 33.8504 19.5622C33.8103 19.5993 33.7546 19.6543 33.7265 19.6843C33.6984 19.7144 33.658 19.7596 33.6365 19.785C33.6151 19.8103 33.5843 19.8487 33.5681 19.8701C33.552 19.8916 33.5263 19.9282 33.5111 19.9515C33.496 19.9747 33.4741 20.0139 33.4624 20.0386C33.4508 20.0633 33.4322 20.1097 33.4212 20.1417C33.4102 20.1737 33.3959 20.2201 33.3895 20.2447C33.383 20.2693 33.3744 20.3087 33.3704 20.3323C33.3663 20.3558 33.3607 20.4025 33.358 20.4361C33.3546 20.4776 33.3546 20.5155 33.358 20.5548C33.3607 20.5865 33.3665 20.6298 33.3708 20.6511C33.375 20.6724 33.3861 20.7117 33.3954 20.7384C33.4046 20.7652 33.4239 20.8096 33.4382 20.8371C33.4525 20.8646 33.4769 20.9049 33.4924 20.9266C33.5079 20.9483 33.5412 20.9877 33.5665 21.0141C33.5917 21.0405 33.6288 21.0758 33.649 21.0926C33.6691 21.1093 33.7096 21.1394 33.739 21.1594C33.7683 21.1795 33.8164 21.2092 33.8457 21.2255C33.8751 21.2419 33.9275 21.2681 33.9622 21.2838C33.9969 21.2995 34.0581 21.3245 34.0982 21.3394C34.1383 21.3542 34.2049 21.3762 34.2462 21.3882C34.2875 21.4001 34.354 21.4176 34.394 21.427C34.4341 21.4364 34.4976 21.4496 34.5351 21.4564C34.5727 21.4633 34.6361 21.473 34.6758 21.4781C34.7157 21.4832 34.7489 21.4868 34.7497 21.486C34.7505 21.4852 34.6978 21.3943 34.6326 21.2839L34.5141 21.0832L34.4954 21.0764C34.485 21.0726 34.4448 21.0576 34.4062 21.043C34.3675 21.0284 34.3037 21.0004 34.2645 20.9807C34.2252 20.961 34.1771 20.9348 34.1577 20.9224C34.1383 20.9099 34.106 20.8871 34.0859 20.8719C34.0659 20.8566 34.0338 20.828 34.0145 20.8082C33.9952 20.7886 33.9708 20.7608 33.9602 20.7466C33.9496 20.7323 33.9322 20.7038 33.9215 20.6833C33.9109 20.6629 33.8975 20.6297 33.8917 20.6098C33.8851 20.5868 33.8804 20.5532 33.8787 20.5178C33.8772 20.4865 33.8785 20.4469 33.8814 20.4276C33.8844 20.4087 33.8924 20.3738 33.8993 20.3499C33.9061 20.3262 33.9256 20.2783 33.9425 20.2436C33.9595 20.2089 33.988 20.1586 34.0058 20.132C34.0237 20.1053 34.0542 20.0638 34.0735 20.0397C34.0928 20.0157 34.1287 19.9742 34.1533 19.9475C34.1778 19.9209 34.2224 19.8764 34.2523 19.8487C34.2822 19.8209 34.3302 19.7789 34.359 19.7553C34.3878 19.7317 34.4326 19.6978 34.4585 19.6798C34.4844 19.6619 34.5354 19.6247 34.5719 19.5972C34.6083 19.5697 34.665 19.5235 34.698 19.4945C34.731 19.4655 34.7831 19.4159 34.8139 19.3841C34.8447 19.3524 34.8837 19.3093 34.9007 19.2884C34.9175 19.2675 34.9478 19.226 34.9677 19.1962C34.9877 19.1664 35.0156 19.118 35.0298 19.0886C35.0439 19.0592 35.061 19.0175 35.0678 18.9958C35.0746 18.9741 35.0838 18.937 35.0882 18.9133C35.0939 18.8829 35.0956 18.8546 35.094 18.8169C35.0928 18.7875 35.088 18.7504 35.0835 18.7344C35.0788 18.7183 35.0695 18.6878 35.0626 18.6664C35.0557 18.6451 35.0397 18.6068 35.027 18.5815C35.0144 18.556 34.9924 18.5189 34.9782 18.4989C34.9642 18.4788 34.9329 18.4421 34.9087 18.4171C34.8845 18.3921 34.8485 18.3583 34.8284 18.3422C34.8084 18.326 34.7691 18.2977 34.741 18.2794C34.713 18.2611 34.6627 18.2321 34.6291 18.2151C34.5955 18.1979 34.5442 18.1742 34.515 18.1624C34.4859 18.1505 34.438 18.1327 34.4087 18.1229C34.3793 18.1131 34.3216 18.0965 34.2803 18.086C34.2391 18.0755 34.2014 18.0671 34.1967 18.0671ZM39.1592 18.0675C39.1532 18.0677 39.0701 18.14 38.9466 18.2527C38.8352 18.3543 38.7446 18.4379 38.7452 18.4384C38.746 18.439 38.7728 18.4362 38.8048 18.4323C38.842 18.4277 38.9129 18.4249 39.0013 18.4245C39.1127 18.4241 39.1505 18.4255 39.1954 18.4326C39.2261 18.4374 39.272 18.4467 39.2973 18.4534C39.3227 18.4601 39.3605 18.4729 39.3813 18.4819C39.4022 18.4909 39.4316 18.5056 39.4467 18.5145C39.4618 18.5234 39.4906 18.547 39.5107 18.567C39.5322 18.5884 39.5536 18.6154 39.5625 18.6325C39.5709 18.6486 39.5813 18.6735 39.5855 18.688C39.5898 18.7025 39.5933 18.7294 39.5933 18.7476C39.5933 18.7683 39.5895 18.7921 39.5833 18.8105C39.5778 18.8269 39.5665 18.8535 39.5583 18.8698C39.5501 18.8861 39.5347 18.9126 39.5239 18.9286C39.5132 18.9446 39.4895 18.9755 39.4713 18.9973C39.453 19.0192 39.4223 19.0531 39.4029 19.0729C39.3835 19.0926 39.348 19.1258 39.324 19.1467C39.3 19.1676 39.2421 19.2131 39.1954 19.2478C39.1487 19.2826 39.0744 19.3399 39.0304 19.3751C38.9864 19.4103 38.9187 19.4671 38.88 19.5014C38.8413 19.5357 38.7736 19.6 38.7296 19.6443C38.6856 19.6886 38.6255 19.7538 38.5961 19.7893C38.5668 19.8248 38.5292 19.8727 38.5126 19.8959C38.4961 19.919 38.4694 19.9598 38.4533 19.9865C38.4371 20.0135 38.4132 20.0637 38.3995 20.0998C38.3859 20.1354 38.3675 20.1915 38.3585 20.2243C38.3495 20.2572 38.3377 20.3111 38.3323 20.344C38.3269 20.3769 38.3211 20.4267 38.3193 20.4548C38.3175 20.4836 38.3185 20.53 38.3217 20.5616C38.3248 20.5922 38.3306 20.6337 38.3347 20.6538C38.3388 20.6738 38.3486 20.7097 38.3565 20.7335C38.3645 20.7574 38.38 20.7956 38.3912 20.8185C38.4023 20.8413 38.4266 20.8829 38.4453 20.9108C38.4654 20.9408 38.5009 20.984 38.5326 21.0167C38.562 21.0471 38.6047 21.0867 38.6275 21.1048C38.6503 21.1228 38.6891 21.1512 38.7137 21.1677C38.7384 21.1841 38.7864 21.2129 38.8204 21.2314C38.8544 21.25 38.9052 21.2753 38.9333 21.2877C38.9614 21.3 39.0127 21.321 39.0474 21.3342C39.0821 21.3474 39.1454 21.3687 39.1881 21.3816C39.2308 21.3944 39.2936 21.4118 39.3277 21.4201C39.3618 21.4284 39.4218 21.4416 39.4612 21.4494C39.5005 21.4572 39.5665 21.468 39.6078 21.4736C39.6492 21.4791 39.6901 21.4845 39.6988 21.4857L39.7146 21.4878L39.709 21.4772C39.7059 21.4713 39.6523 21.3799 39.5898 21.274L39.4762 21.0814L39.4438 21.0708C39.4259 21.0649 39.3841 21.0494 39.3507 21.0362C39.3173 21.023 39.261 20.998 39.2255 20.9804C39.1901 20.9629 39.1355 20.9316 39.1042 20.9109C39.073 20.8901 39.0321 20.8599 39.0134 20.8436C38.9948 20.8275 38.9661 20.7985 38.9497 20.7794C38.9333 20.7602 38.9113 20.7301 38.9008 20.7125C38.8902 20.6949 38.8756 20.6654 38.8683 20.6472C38.861 20.6288 38.852 20.5994 38.8482 20.5816C38.8444 20.5639 38.8413 20.5262 38.8413 20.4978C38.8412 20.4694 38.8446 20.4283 38.8487 20.4065C38.8528 20.3847 38.8629 20.3479 38.8711 20.3247C38.8793 20.3015 38.8975 20.2596 38.9116 20.2316C38.9257 20.2036 38.9502 20.1609 38.9662 20.1369C38.9821 20.1129 39.0087 20.0758 39.0253 20.0544C39.0419 20.0331 39.0787 19.9897 39.1071 19.9581C39.1354 19.9265 39.1886 19.8733 39.2252 19.8399C39.2618 19.8066 39.3116 19.7634 39.3359 19.744C39.3602 19.7246 39.4104 19.6876 39.4474 19.6617C39.4845 19.6359 39.5493 19.5871 39.5917 19.5533C39.6349 19.5187 39.7046 19.4558 39.7513 19.4092C39.7968 19.3637 39.8488 19.3079 39.8669 19.2852C39.885 19.2625 39.914 19.2225 39.9315 19.1961C39.949 19.1698 39.9749 19.125 39.9892 19.0965C40.0034 19.068 40.0218 19.0242 40.03 18.9991C40.0382 18.9739 40.0484 18.9336 40.0526 18.9094C40.0579 18.8789 40.0594 18.8499 40.0576 18.8145C40.0556 18.7761 40.0507 18.7487 40.0375 18.7034C40.0279 18.6703 40.0113 18.6244 40.0006 18.6016C39.9898 18.5787 39.9742 18.549 39.9658 18.5356C39.9574 18.5222 39.937 18.4938 39.9205 18.4724C39.904 18.4511 39.8711 18.415 39.8475 18.3923C39.8238 18.3696 39.7873 18.3382 39.7663 18.3225C39.7454 18.3069 39.7097 18.2824 39.687 18.2682C39.6644 18.2539 39.6226 18.2304 39.5941 18.2159C39.5656 18.2014 39.5215 18.1808 39.496 18.1699C39.4705 18.1592 39.4203 18.1402 39.3844 18.1279C39.3485 18.1155 39.2854 18.0968 39.2442 18.0863C39.203 18.0758 39.1647 18.0673 39.1592 18.0675ZM36.4879 22.2844H31.6114L31.6114 22.3803C31.6114 22.433 31.6136 22.5416 31.6162 22.6217C31.6187 22.7018 31.6231 22.811 31.626 22.8644C31.6288 22.9177 31.6344 23.0095 31.6383 23.0682C31.6423 23.1269 31.6511 23.2371 31.6577 23.3132C31.6644 23.3893 31.6774 23.5198 31.6868 23.6033C31.6962 23.6867 31.7103 23.8036 31.7182 23.8629C31.7262 23.9223 31.7394 24.0155 31.7476 24.0703C31.7557 24.125 31.7711 24.2222 31.7817 24.2862C31.7922 24.3503 31.8107 24.4559 31.8228 24.521C31.8348 24.5861 31.8545 24.6876 31.8665 24.7466C31.8786 24.8057 31.8983 24.8987 31.9103 24.9535C31.9224 25.0082 31.9453 25.1075 31.9612 25.1743C31.9771 25.241 32.0065 25.3573 32.0265 25.4328C32.0465 25.5082 32.075 25.6109 32.0897 25.6609C32.1045 25.7108 32.1296 25.7932 32.1456 25.844C32.1615 25.8947 32.189 25.9777 32.2065 26.0284C32.224 26.0791 32.2569 26.1675 32.2795 26.2249C32.3022 26.2823 32.3371 26.3664 32.3572 26.4117C32.3773 26.4571 32.4152 26.5379 32.4415 26.5913C32.4677 26.6447 32.511 26.7282 32.5376 26.777C32.5643 26.8257 32.6072 26.901 32.6331 26.9444C32.6589 26.9877 32.7156 27.0767 32.7589 27.1421C32.8023 27.2074 32.8704 27.3047 32.9103 27.358C32.9502 27.4114 33.0113 27.49 33.0461 27.5327C33.0809 27.5754 33.1284 27.6322 33.1518 27.6589C33.1752 27.6856 33.2266 27.7424 33.2661 27.7851C33.3056 27.8278 33.3735 27.8977 33.4172 27.9405C33.4608 27.9833 33.5226 28.0423 33.5547 28.0716C33.5867 28.101 33.6424 28.1503 33.6784 28.1811C33.7145 28.212 33.7767 28.2634 33.8167 28.2954C33.8567 28.3274 33.919 28.3755 33.955 28.4023C33.991 28.4291 34.0576 28.4766 34.103 28.5079C34.1483 28.5392 34.2224 28.5879 34.2676 28.616C34.3128 28.6442 34.3848 28.6869 34.4277 28.7108C34.4706 28.7348 34.5231 28.7629 34.5443 28.7732L34.5828 28.792H38.5142L38.5552 28.778C38.5777 28.7704 38.6245 28.7531 38.6592 28.7398C38.6939 28.7264 38.7536 28.7021 38.7917 28.6857C38.8299 28.6693 38.8987 28.6375 38.9446 28.615C38.9904 28.5924 39.064 28.5539 39.1081 28.5295C39.1521 28.505 39.2242 28.4625 39.2682 28.4351C39.3122 28.4077 39.3788 28.364 39.4162 28.338C39.4535 28.312 39.5158 28.2667 39.5545 28.2372C39.5932 28.2078 39.6564 28.1574 39.6949 28.1251C39.7335 28.0929 39.7881 28.0459 39.8162 28.0208C39.8444 27.9956 39.9134 27.929 39.9695 27.8727C40.0257 27.8165 40.0968 27.7421 40.1276 27.7074C40.1584 27.6727 40.2071 27.6159 40.2359 27.5812C40.2646 27.5465 40.316 27.481 40.35 27.4357C40.3841 27.3903 40.4336 27.3204 40.46 27.2804C40.4865 27.2403 40.5128 27.1995 40.5186 27.1897C40.5269 27.1755 40.533 27.1711 40.5476 27.1685C40.5578 27.1667 40.6065 27.1578 40.6559 27.1487C40.7053 27.1395 40.7839 27.1232 40.8306 27.1125C40.8773 27.1018 40.9559 27.0821 41.0053 27.0687C41.0547 27.0553 41.1496 27.0262 41.2163 27.004C41.2831 26.9819 41.377 26.9478 41.425 26.9285C41.473 26.9091 41.5527 26.8749 41.6021 26.8525C41.6515 26.8301 41.7312 26.7908 41.7792 26.7652C41.8272 26.7396 41.8939 26.7022 41.9272 26.6822C41.9606 26.6622 42.0184 26.6257 42.0558 26.601C42.0931 26.5763 42.1499 26.537 42.1819 26.5136C42.214 26.4902 42.2655 26.4507 42.2965 26.4258C42.3276 26.4009 42.3833 26.3535 42.4203 26.3204C42.4573 26.2873 42.5237 26.2234 42.5678 26.1782C42.612 26.1332 42.6667 26.0744 42.6894 26.0478C42.7122 26.0211 42.7487 25.9768 42.7705 25.9493C42.7923 25.9219 42.8283 25.8739 42.8504 25.8426C42.8725 25.8113 42.9042 25.7646 42.9208 25.7388C42.9374 25.7129 42.9622 25.6726 42.9759 25.649C42.9896 25.6254 43.0157 25.5756 43.0341 25.5382C43.0525 25.5008 43.0804 25.4451 43.0962 25.4144C43.1121 25.3837 43.137 25.3311 43.1517 25.2975C43.1663 25.2639 43.1883 25.2088 43.2005 25.1752C43.2127 25.1416 43.2323 25.0806 43.244 25.0396C43.2557 24.9987 43.2721 24.933 43.2804 24.8938C43.2887 24.8545 43.2997 24.7957 43.3049 24.7629C43.3102 24.7302 43.3178 24.6725 43.3219 24.6347C43.3261 24.5968 43.3318 24.517 43.3347 24.4572C43.3385 24.3791 43.3385 24.318 43.3347 24.2403C43.3318 24.1808 43.3272 24.1111 43.3244 24.0854C43.3217 24.0597 43.3118 24.0123 43.3026 23.98C43.2933 23.9478 43.2762 23.8963 43.2645 23.8656C43.2529 23.8349 43.2286 23.7809 43.2107 23.7455C43.1927 23.7102 43.1634 23.659 43.1454 23.6319C43.1275 23.6047 43.1012 23.5683 43.087 23.551C43.0729 23.5336 43.0414 23.499 43.0171 23.4741C42.9927 23.4493 42.9565 23.4151 42.9365 23.3983C42.9165 23.3815 42.8794 23.3537 42.854 23.3365C42.8286 23.3193 42.7884 23.2947 42.7646 23.2817C42.7409 23.2688 42.6994 23.2485 42.6725 23.2366C42.6455 23.2247 42.6038 23.208 42.5798 23.1993C42.5558 23.1906 42.5067 23.1756 42.4706 23.166C42.4346 23.1563 42.3757 23.143 42.3396 23.1365C42.3036 23.13 42.2411 23.1212 42.2009 23.1171C42.1605 23.1129 42.0874 23.1081 42.0383 23.1064C41.9874 23.1046 41.9084 23.1056 41.8544 23.1088C41.8024 23.1119 41.7303 23.1177 41.6943 23.1217C41.6583 23.1257 41.595 23.1346 41.5536 23.1414C41.5122 23.1483 41.455 23.1591 41.4265 23.1656C41.398 23.172 41.3723 23.1773 41.3695 23.1773C41.3659 23.1773 41.3643 23.0419 41.3643 22.7308V22.2844L36.4879 22.2844ZM32.6061 23.1773H32.8696L32.8665 23.2149C32.8649 23.2356 32.8602 23.2919 32.8562 23.3399C32.8522 23.3879 32.8466 23.4687 32.844 23.5194C32.8412 23.5702 32.8391 23.6957 32.8391 23.7985C32.839 23.9012 32.8412 24.0257 32.8439 24.0751C32.8465 24.1245 32.8521 24.2053 32.8561 24.2547C32.8602 24.304 32.869 24.3902 32.8756 24.4462C32.8822 24.5022 32.8941 24.5898 32.9021 24.6408C32.91 24.6919 32.9242 24.775 32.9338 24.8254C32.9433 24.8758 32.9587 24.9509 32.968 24.9923C32.9773 25.0336 32.9978 25.1177 33.0135 25.1791C33.0292 25.2405 33.0563 25.3377 33.0737 25.3951C33.0911 25.4524 33.1198 25.542 33.1376 25.594C33.1553 25.6461 33.1852 25.729 33.2041 25.7784C33.2229 25.8278 33.2552 25.9086 33.2759 25.958C33.2966 26.0073 33.3315 26.0871 33.3535 26.1351C33.3754 26.1832 33.4163 26.2683 33.4443 26.3244C33.4723 26.3804 33.5161 26.4645 33.5415 26.5112C33.567 26.5579 33.6124 26.6377 33.6424 26.6886C33.6723 26.7394 33.7202 26.8181 33.7489 26.8633C33.7775 26.9085 33.8257 26.9821 33.856 27.0268C33.8863 27.0714 33.9392 27.1467 33.9737 27.1942C34.0081 27.2416 34.0651 27.3173 34.1003 27.3623C34.1355 27.4074 34.192 27.4773 34.2258 27.5176C34.2596 27.558 34.3135 27.6204 34.3456 27.6564C34.3776 27.6924 34.4334 27.7527 34.4694 27.7904C34.5054 27.828 34.5615 27.8843 34.5941 27.9154C34.6267 27.9465 34.6524 27.9719 34.6512 27.9719C34.65 27.9719 34.6266 27.9619 34.5992 27.9496C34.5719 27.9373 34.52 27.9123 34.4839 27.894C34.4479 27.8758 34.386 27.8422 34.3464 27.8194C34.3068 27.7967 34.237 27.7532 34.1912 27.7229C34.1453 27.6924 34.0839 27.6495 34.0545 27.6273C34.0252 27.6051 33.9848 27.5738 33.9647 27.5576C33.9448 27.5415 33.9055 27.5085 33.8774 27.4844C33.8494 27.4603 33.7885 27.4034 33.7421 27.358C33.6957 27.3127 33.6311 27.2457 33.5984 27.2092C33.5658 27.1726 33.52 27.1196 33.4967 27.0912C33.4734 27.0629 33.4274 27.0038 33.3944 26.96C33.3615 26.9161 33.3074 26.8392 33.2743 26.7892C33.2411 26.7391 33.1933 26.6631 33.168 26.6204C33.1427 26.5777 33.1086 26.5185 33.0923 26.4888C33.0759 26.4591 33.0386 26.387 33.0093 26.3286C32.98 26.2702 32.9372 26.1799 32.9141 26.1279C32.891 26.0758 32.854 25.9874 32.8318 25.9313C32.8095 25.8753 32.7772 25.7901 32.7599 25.7421C32.7426 25.694 32.7142 25.6099 32.6968 25.5552C32.6794 25.5005 32.6542 25.4175 32.6408 25.3708C32.6273 25.3241 32.6043 25.2389 32.5895 25.1816C32.5748 25.1242 32.5549 25.0434 32.5454 25.002C32.5359 24.9606 32.5184 24.8795 32.5067 24.8218C32.4949 24.764 32.4765 24.6669 32.4659 24.6058C32.4553 24.5448 32.441 24.4578 32.4343 24.4124C32.4275 24.367 32.4176 24.2971 32.4123 24.2571C32.4069 24.2171 32.3971 24.1352 32.3905 24.0751C32.3838 24.015 32.374 23.9102 32.3686 23.8422C32.3631 23.7741 32.3564 23.6835 32.3536 23.6408C32.3507 23.5981 32.3472 23.4764 32.3456 23.3703L32.3428 23.1774L32.6061 23.1773ZM42.0061 23.6731C42.0643 23.6727 42.1331 23.6745 42.159 23.6773C42.1849 23.6801 42.229 23.6868 42.257 23.6922C42.2851 23.6975 42.3334 23.7104 42.3643 23.7207C42.3953 23.731 42.4379 23.7481 42.459 23.7587C42.4801 23.7693 42.5116 23.7876 42.5292 23.7994C42.5468 23.8112 42.5737 23.8316 42.5891 23.8448C42.6045 23.858 42.6312 23.8863 42.6484 23.9077C42.6656 23.929 42.6894 23.9636 42.7012 23.9844C42.713 24.0053 42.7302 24.0413 42.7394 24.0645C42.7486 24.0877 42.7608 24.1247 42.7663 24.1468C42.7719 24.1689 42.7798 24.2082 42.7838 24.2342C42.7878 24.2601 42.7924 24.3195 42.794 24.3663C42.7958 24.4163 42.7946 24.482 42.7912 24.5264C42.7881 24.5677 42.7811 24.6328 42.7758 24.671C42.7705 24.7092 42.7597 24.7725 42.7517 24.8117C42.7437 24.851 42.7295 24.9122 42.7201 24.9478C42.7106 24.9833 42.6934 25.0413 42.6818 25.0765C42.6701 25.1118 42.6493 25.1689 42.6356 25.2035C42.6218 25.2381 42.5944 25.3 42.5745 25.3411C42.5547 25.3822 42.5272 25.4356 42.5135 25.46C42.4998 25.4843 42.4639 25.5414 42.434 25.5867C42.404 25.6321 42.3558 25.6987 42.327 25.7348C42.2981 25.7708 42.2351 25.8396 42.1869 25.8877C42.1387 25.9358 42.0782 25.9923 42.0523 26.0134C42.0264 26.0345 41.978 26.0716 41.9446 26.0958C41.9112 26.1201 41.8618 26.1538 41.8348 26.1706C41.8077 26.1875 41.7558 26.218 41.7193 26.2384C41.6828 26.2588 41.6213 26.29 41.5826 26.3078C41.5439 26.3256 41.4817 26.3523 41.4443 26.367C41.4069 26.3817 41.3462 26.4039 41.3094 26.4163C41.2726 26.4286 41.2077 26.4484 41.1652 26.4602C41.1226 26.4719 41.0523 26.4893 41.0089 26.4988C40.9655 26.5083 40.8918 26.5226 40.8451 26.5306C40.7984 26.5386 40.7597 26.5452 40.759 26.5452C40.7584 26.5452 40.7718 26.5239 40.7888 26.4979C40.8057 26.4718 40.8321 26.4288 40.8473 26.4023C40.8626 26.3757 40.8943 26.3157 40.9177 26.2688C40.9411 26.222 40.9739 26.152 40.9905 26.1133C41.0072 26.0746 41.0338 26.0091 41.0497 25.9677C41.0656 25.9263 41.0926 25.851 41.1096 25.8003C41.1267 25.7496 41.1547 25.6589 41.1718 25.5989C41.189 25.5388 41.213 25.4471 41.2253 25.3951C41.2376 25.343 41.2563 25.2578 41.267 25.2058C41.2776 25.1537 41.2939 25.0653 41.3032 25.0093C41.3125 24.9532 41.3245 24.8757 41.3298 24.837C41.3352 24.7983 41.345 24.7164 41.3517 24.655C41.3584 24.5936 41.3672 24.5008 41.3711 24.4488C41.3752 24.3967 41.3809 24.3105 41.384 24.2571C41.387 24.2037 41.3909 24.0729 41.3926 23.9664L41.3958 23.7728L41.4152 23.766C41.4259 23.7623 41.4685 23.7507 41.5098 23.7403C41.5512 23.7299 41.6134 23.7157 41.6481 23.7089C41.6828 23.702 41.7451 23.6921 41.7864 23.6869C41.8278 23.6817 41.8703 23.6767 41.881 23.6757C41.8917 23.6747 41.948 23.6736 42.0061 23.6731ZM36.6506 29.3988H31.4072L31.4105 29.417C31.4123 29.427 31.4211 29.465 31.43 29.5014C31.4389 29.5378 31.4539 29.5918 31.4635 29.6213C31.473 29.6508 31.4918 29.7017 31.5052 29.7344C31.5187 29.7672 31.5448 29.8235 31.5632 29.8596C31.5816 29.8957 31.6111 29.9482 31.6286 29.9763C31.6462 30.0043 31.6827 30.0567 31.7098 30.0927C31.7424 30.1362 31.7876 30.187 31.8441 30.2436C31.891 30.2906 31.95 30.345 31.9754 30.3645C32.0008 30.384 32.0444 30.4151 32.0724 30.4337C32.1005 30.4522 32.1359 30.4738 32.1511 30.4815L32.1789 30.4955L36.5594 30.4943L40.9399 30.4931L40.9967 30.4703C41.0279 30.4578 41.0775 30.4355 41.1068 30.4208C41.1362 30.4061 41.1772 30.3838 41.198 30.3712C41.2189 30.3586 41.2556 30.3342 41.2796 30.317C41.3036 30.2998 41.3385 30.2735 41.3572 30.2584C41.3759 30.2434 41.4196 30.2027 41.4544 30.168C41.4891 30.1333 41.5351 30.083 41.5566 30.0561C41.578 30.0294 41.6111 29.9857 41.63 29.9591C41.649 29.9325 41.679 29.8868 41.6968 29.8574C41.7145 29.8281 41.747 29.768 41.769 29.724C41.791 29.6799 41.8173 29.6231 41.8276 29.5978C41.8378 29.5724 41.8554 29.5244 41.8667 29.491C41.878 29.4577 41.8888 29.4233 41.8907 29.4146L41.8942 29.3988L36.6506 29.3988Z" fill="white"/>
</svg>
