<svg width="106" height="100" viewBox="0 0 106 100" fill="none" xmlns="http://www.w3.org/2000/svg">
<path fill-rule="evenodd" clip-rule="evenodd" d="M75.1501 21.7183V58.6925C75.1501 62.71 73.6328 65.8914 71.1381 68.004C68.7044 70.0612 65.5646 70.9112 62.5604 70.7838C59.0884 70.6398 55.4613 69.1308 53.0248 66.3178C52.3963 71.3846 54.207 74.7542 55.0294 75.643L56.9121 77.6725L52.8531 81.4381L50.9703 79.4086C48.7165 76.9776 46.2966 71.249 47.8444 63.7649C45.4756 64.2611 43.0304 64.2667 40.6594 63.7816C38.1758 63.2555 35.7337 62.1231 33.8842 60.2209C31.9903 58.2745 30.8496 55.6524 30.8496 52.496C30.8496 47.9441 32.4749 44.6548 35.3793 42.2515C38.065 40.0282 41.7115 38.6937 45.3995 37.5003C46.2634 37.2234 47.1457 36.9438 48.0465 36.6614C55.0764 34.4546 63.0644 31.9461 70.5927 25.5779L75.1501 21.7183ZM55.6606 58.5209C56.8263 56.3834 58.4294 54.0964 60.5946 51.6903L62.4497 49.6331L58.3325 45.9285L56.4774 47.9857C53.7363 51.0313 51.7373 53.9939 50.3197 56.8042C48.2375 58.3326 44.8873 59.0165 41.8057 58.3631C40.1361 58.0087 38.7711 57.3026 37.8519 56.3585C36.9769 55.4614 36.3872 54.232 36.3872 52.4932C36.3872 49.4864 37.3562 47.8002 38.9095 46.5127C40.6788 45.0508 43.3506 43.982 47.1051 42.7665C47.9228 42.5044 48.7775 42.234 49.669 41.9553C55.4253 40.1583 62.5715 37.9267 69.6125 33.2308V58.6925C69.6125 61.226 68.7071 62.807 67.5636 63.7733C66.3592 64.7922 64.6481 65.3293 62.793 65.2518C59.1161 65.0995 55.8434 62.6934 55.6606 58.5209Z" fill="#FF921C"/>
<path fill-rule="evenodd" clip-rule="evenodd" d="M52.9999 96.9073L51.7927 99.3992L51.7816 99.3936L51.7484 99.377L51.6293 99.3189L51.1863 99.0974C50.8042 98.9036 50.2505 98.6156 49.55 98.2391C41.2524 93.748 33.4511 88.395 26.2756 82.2687C13.6389 71.3958 0.393066 55.2731 0.393066 35.23C0.393066 26.2231 3.37504 17.4987 8.48067 10.9754C13.6029 4.43835 20.9706 0 29.6397 0C39.9285 0 47.7392 5.83382 52.9999 14.0599C58.2578 5.83659 66.0685 0 76.3628 0C85.0291 0 92.3968 4.43835 97.5163 10.9782C102.627 17.4987 105.607 26.2203 105.607 35.2327C105.607 54.5117 92.3387 70.6371 79.7435 81.6707C72.088 88.3228 63.7511 94.1474 54.8716 99.0475L54.4313 99.2829L54.3123 99.3466L54.2818 99.3632L54.268 99.3687L52.9999 96.9073ZM12.8415 14.3893C8.53605 19.8881 5.93062 27.3943 5.93062 35.23C5.93062 52.7896 17.6038 67.5056 29.8861 78.0713C36.9865 84.129 44.7246 89.3966 52.9639 93.7813L53.7779 93.3273C61.7208 88.8033 69.196 83.5039 76.0943 77.5064C88.4153 66.7082 100.069 51.9977 100.069 35.2272C100.069 27.3915 97.4637 19.8881 93.1582 14.3893C88.8666 8.90993 82.9968 5.53756 76.3628 5.53756C67.1871 5.53756 60.0824 11.5375 55.4862 20.932L52.9999 26.0182L50.5135 20.9375C45.9173 11.5375 38.8126 5.53756 29.6369 5.53756C23.0029 5.53756 17.1331 8.90993 12.8415 14.3893Z" fill="#FF921C"/>
<path d="M53.0002 96.9077L54.2683 99.3692L53.0389 100L51.793 99.3996L53.0002 96.9077Z" fill="#FF921C"/>
</svg>
