<svg width="90" height="90" viewBox="0 0 90 90" fill="none" xmlns="http://www.w3.org/2000/svg">
<path d="M47.1017 86.6668H40.3287C22.7131 86.6668 13.9053 86.6668 8.43139 81.4377C2.95752 76.2043 2.95752 67.7877 2.95752 50.9543V28.3335H87.0416V38.7502" stroke="#FF921C" stroke-width="5" stroke-linecap="round" stroke-linejoin="round"/>
<path d="M70.2248 61.6668H70.2626M2.95752 28.3335L7.00196 18.7168C10.1341 11.2585 11.7023 7.5335 14.8806 5.4335C18.059 3.3335 22.1287 3.3335 30.2848 3.3335H59.7143C67.8662 3.3335 71.9401 3.3335 75.1185 5.4335C78.2969 7.5335 79.865 11.2627 82.9972 18.7168L87.0416 28.3335M44.9996 28.3335V3.3335M36.5912 45.0002H44.9996M70.2248 45.0002C60.9335 45.0002 53.408 52.5377 53.408 61.8335C53.408 67.1502 55.5101 71.2835 59.7143 74.9793C62.6782 77.5793 66.2686 81.9043 68.4212 85.4085C69.4554 87.0877 70.9185 87.0877 72.0284 85.4085C74.2903 81.971 77.7713 77.5793 80.7353 74.9793C84.9395 71.2835 87.0416 67.1502 87.0416 61.8335C87.0416 52.5418 79.5161 45.0002 70.2248 45.0002Z" stroke="#FF921C" stroke-width="5" stroke-linecap="round" stroke-linejoin="round"/>
</svg>
